<svg><defs><font id="Fregat-Bold" horiz-adv-x="530"><font-face font-family="Fregat" font-weight="700" panose-1="2 0 8 6 4 0 0 2 0 4" ascent="800" descent="-200" x-height="518" cap-height="700" bbox="-35 -209 931 897.108" underline-thickness="50" underline-position="-50" unicode-range="U+0020-U+FB00"/><glyph glyph-name="ff" unicode="ff" horiz-adv-x="617" d="M96 39v371H63q-48 0-48 54t48 54h33v15q0 89 40.5 132.5T279 709q73 0 73-63 0-29-10-41t-34-11q-6 1-14 1-29-1-46.5-13T230 535v-17h135v15q0 88 40.5 132T548 709q42 0 60.5-11.5T627 646q0-29-9.5-41T584 594q-6 1-20 1-30-1-47.5-13T499 535v-17h44q48 0 48-54t-48-54h-44V39q0-48-67-48t-67 48v371H230V39q0-48-67-48T96 39z"/><glyph glyph-name="tt" unicode="tt" horiz-adv-x="659" d="M374 607q0 48 67 48 68 0 68-48v-89h49q48 0 48-54t-48-54h-49V178q0-37 17-53t60-10q53 7 57-43 3-41-24-61T547-9q-93 0-133 46.5T374 170v240H229V178q0-74 81-64 28 3 40-9.5T363 65q3-74-95-74-94 0-133.5 46.5T95 170v240H63q-48 0-48 54t48 54h32v89q0 48 67 48t67-48v-89h145v89z"/><glyph glyph-name="h_h" unicode="-&gt;" horiz-adv-x="817" d="M93 335h503q-15 7-38 28l-71 57q-39 37-8 63 14 13 34.5 13t32.5-13l212-173q9-8 9-19t-9-18L546 99q-12-14-32.5-14T479 99q-16 15-12.5 31.5T487 160l71 59q10 10 38 30H93q-43 0-43 43 0 20 11.5 31.5T93 335z"/><glyph glyph-name="g_g" unicode="&lt;-" horiz-adv-x="819" d="M726 335q20 0 31.5-11.5T769 292q0-43-43-43H219q9-6 23.5-17t18.5-13l68-59q19-13 23-29.5T341 99q-15-14-35-14t-36 14L59 273q-8 7-8 18.5t9 18.5l210 173q16 13 36 13t35-13q30-27-12-63l-68-57q-3-2-18-13t-24-15h507z"/><glyph glyph-name=".notdef" horiz-adv-x="330"/><glyph glyph-name=".null" horiz-adv-x="0"/><glyph glyph-name="nonmarkingreturn" horiz-adv-x="333"/><glyph glyph-name="space" horiz-adv-x="330"/><glyph glyph-name="exclam" unicode="!" horiz-adv-x="263" d="M132 131q42 0 57.5-17.5T205 61q0-37-15.5-55.5T132-13Q89-13 74 5.5T59 61q0 35 15.5 52.5T132 131zm0 572q79 0 75-64l-30-419q-3-33-45-33-43 0-46 33L56 639q-4 64 76 64z"/><glyph glyph-name="quotedbl" unicode="&quot;" horiz-adv-x="429" d="M283 415q-50 3-43 51l28 182q9 62 82 57 44-3 58-30.5t-2-59.5l-65-162q-16-39-58-38zm-184 0q-50 3-43 51l28 182q9 62 82 57 44-3 58-30.5t-2-59.5l-65-162q-15-39-58-38z"/><glyph glyph-name="numbersign" unicode="#" horiz-adv-x="607" d="M312 654l-27-149h90l27 149q8 46 66 46 25 0 39.5-10.5T518 654l-26-149h56q42 0 32-53t-51-53h-56l-17-94h56q43 0 33-53-8-53-51-53h-56L409 37q-7-46-66-46-25 0-39.5 10.5T293 37l28 162h-89L203 37q-7-46-66-46-25 0-39.5 10.5T87 37l28 162H59q-42 0-32 53t51 53h56l17 94H94q-42 0-32 53t51 53h56l27 149q8 46 66 46 26 0 40.5-10.5T312 654zm-62-349h90l17 94h-90z"/><glyph glyph-name="dollar" unicode="$" horiz-adv-x="564" d="M129 193q14-70 88-92v210q-85 26-135.5 71.5T31 511q0 80 53 131.5T217 706v20q0 46 56 46 57 0 57-46v-22q153-28 178-170 8-48-44-51-57-4-67 28-22 64-67 84V410q43-13 75-27.5t62-38 46-59.5 16-82q0-91-52-146T330-10v-31q0-47-57-47-56 0-56 47v33Q138 4 82.5 49T16 173q-4 21 8 38.5T67 233q51 6 62-40zm201-93q71 21 71 94 0 59-71 85V100zM217 598q-28-9-46-31.5T153 512q1-45 64-71v157z"/><glyph glyph-name="percent" unicode="%" horiz-adv-x="655" d="M25 545q0 70 34 113t104 43 104-43.5T301 545t-34-112.5T163 389 59 432 25 545zm179 0q0 14-1 22.5t-4 22-12.5 20T163 616t-23.5-6.5-12.5-20-4-22-1-22.5q0-71 41-71t41 71zm150-399q0 69 34 112t104 43 104-43 34-112-34-112.5T492-10 388 33t-34 113zm179 0q0 71-41 71-14 0-23.5-6.5t-12.5-20-4-22-1-22.5q0-71 41-71t41 71zm21 498L203 25q-21-43-78-32-21 4-27.5 18t3.5 33l351 619q17 38 66 37 25-1 36-17t0-39z"/><glyph glyph-name="ampersand" unicode="&amp;" horiz-adv-x="640" d="M501 8l-49 51Q378-9 274-9q-102-1-170 58T35 209q0 120 147 212-15 31-24 55-31 87 8.5 155.5T303 700q74 0 117-37t38-110q-5-95-123-172 37-57 104-137 16 47 17 94 1 23 16.5 35t39.5 9q60-8 57-65-6-85-47-166l90-95q18-23 9-39T584-7q-52-17-83 15zM378 142q-82 95-139 182-71-49-71-115 0-48 30.5-79T279 99q57 0 99 43zm-97 338q61 45 56 87-2 15-11.5 24.5T302 602q-23 0-34-14t-10-34.5 7-40.5 16-33z"/><glyph glyph-name="quotesingle" unicode="'" horiz-adv-x="245" d="M98 415q-49 3-42 51l27 182q10 62 82 57 44-3 58.5-30.5T222 615l-65-162q-16-39-59-38z"/><glyph glyph-name="parenleft" unicode="(" horiz-adv-x="276" d="M35 258q0 224 144 423 23 28 67 12 41-16 14-60-101-167-101-375t101-375q27-44-14-60-44-16-67 12Q35 16 35 258z"/><glyph glyph-name="parenright" unicode=")" horiz-adv-x="276" d="M96 681q145-181 145-423 0-244-145-423-23-29-67-12-40 15-13 60Q116 48 116 258T16 633q-27 45 13 60 44 17 67-12z"/><glyph glyph-name="asterisk" unicode="*" horiz-adv-x="489" d="M371 311q-21-15-45-12t-38 27l-45 81-44-82q-13-24-37-27.5T116 311q-23 17-26 40t16 43l63 67-91 18q-28 5-38 29t2 51q11 24 29.5 32t41.5-2l85-40-12 93q-3 26 13 43t44 17q29 0 45.5-17t13.5-43l-12-93 84 39q27 11 47 1.5t29-35.5q9-27-2-49t-39-27l-90-17 62-67q19-21 16-44t-26-39z"/><glyph glyph-name="plus" unicode="+" horiz-adv-x="567" d="M339 556V402h154q39 0 39-56 0-55-39-55H339V136q0-39-56-39-55 0-55 39v155H73q-38 0-38 55 0 56 38 56h155v154q0 39 55 39 56 0 56-39z"/><glyph glyph-name="comma" unicode="," horiz-adv-x="275" d="M89-149q-50 3-43 51L74 84q9 62 82 57 44-3 58-30.5T212 51l-65-162q-17-41-58-38z"/><glyph glyph-name="hyphen" unicode="-" horiz-adv-x="350" d="M276 206H73q-38 0-38 55 0 56 38 56h203q39 0 39-56 0-55-39-55z"/><glyph glyph-name="period" unicode="." horiz-adv-x="281" d="M140 141q44 0 60-18.5T216 66q0-39-16-59t-60-20T80.5 7 65 66q0 37 16.5 56t58.5 19z"/><glyph glyph-name="slash" unicode="/" horiz-adv-x="497" d="M486 642L113-145q-20-44-78-33-44 8-24 52l372 787q19 38 66 37 26-2 37-17.5t0-38.5z"/><glyph glyph-name="zero" unicode="0" horiz-adv-x="646" d="M40 348q0 67 16.5 128.5T106 590t89 83 128 31 128-31 89-83 49.5-113.5T606 348t-16.5-128.5T540 106t-89-83T323-8 195 23t-89 83-49.5 113.5T40 348zm429 0q0 39-6 76.5t-21 77-45.5 63.5-73.5 24q-35 0-62-16.5t-42.5-42-25-59-13-63.5-3.5-60 3.5-60 13-63.5 25-59 42.5-42 62-16.5q43 0 73.5 24t45.5 63.5 21 77 6 76.5z"/><glyph glyph-name="one" unicode="1" horiz-adv-x="373" d="M288 658V41q0-46-62-46t-62 46v523q-11-11-31-19l-54-21q-16-6-31 1.5T26 550q-18 46 19 65l134 77q19 12 47 12 62 0 62-46z"/><glyph glyph-name="two" unicode="2" d="M87 0Q48 0 34 16T20 76q0 40 33 80 59 68 194 172 116 90 116 159 0 50-29 77.5T252 592q-82 0-102-84-6-25-26-35t-46-7q-26 2-38 14t-12 38q6 90 70 140.5T252 709q107 0 176-52.5T497 502q0-72-36.5-125T356 268l-54.5-42.5-63.5-50-49-44.5q-3-3-2.5-7t6.5-4h265q42 0 42-60T458 0H87z"/><glyph glyph-name="three" unicode="3" d="M427 586L287 448q-3-3-1.5-7t6.5-5q93-3 150.5-60.5T499 230q0-108-71-174.5T248-11Q78-9 22 116q-12 26-3 48.5T54 198q23 10 45.5 4.5T132 175q19-38 47-54.5t72-16.5q51 0 81.5 32.5T365 220q1 40-15.5 66.5T306 323t-61.5 13.5T177 334q-18-2-33.5 8.5T122 371q-15 35 16 70l95 102q11 14 39 38H70q-43 0-43 59 0 60 43 60h344q42 0 40-60-1-24-27-54z"/><glyph glyph-name="four" unicode="4" horiz-adv-x="564" d="M495 144h-41V37q0-46-66-46t-66 46v107H62q-48 0-51 56-1 27 16 54l254 403q19 29 39.5 40.5T373 709q81 0 81-52V257h41q39 0 39-57 0-56-39-56zM322 527q-14-35-27-56l-97-154q-24-40-45-60h169v270z"/><glyph glyph-name="five" unicode="5" horiz-adv-x="548" d="M149 700h270q42 0 42-59 0-61-42-61H212q-10 0-13-4t-6-16l-12-85q-3-18 4.5-23t23.5-2q133 25 221-31t87-190q-1-108-69.5-174T270-11q-78 0-138.5 32T42 119q-23 50 29 74 55 25 84-19 23-37 49-54.5t68-17.5q51 0 81 35t30 86q0 44-21 75t-54.5 44-74.5 12.5-80-14.5q-44-16-80 3.5T44 412l26 198q7 53 22 71.5t57 18.5z"/><glyph glyph-name="six" unicode="6" horiz-adv-x="558" d="M284-10q-65 0-114 25.5t-76.5 70-40.5 99T40 304q0 147 85 262.5T348 715q58 13 86-33 14-24 5.5-42T404 614q-75-20-135-64t-84-112q48 36 120 36 100 0 161.5-68.5T528 235q0-104-69.5-174.5T284-10zm1 368q-53 0-81-38t-28-91q0-51 28.5-91.5T283 97q54 0 83 40t29 95q0 126-110 126z"/><glyph glyph-name="seven" unicode="7" horiz-adv-x="472" d="M119 38l188 524q6 18-12 18H62q-42 0-42 60t42 60h348q42 0 42-60 0-16-8-40L251 38Q235-8 169-8t-50 46z"/><glyph glyph-name="eight" unicode="8" horiz-adv-x="583" d="M135 380q-64 54-64 131 0 93 64 147t157 54 157-54 64-147q0-75-64-131 47-27 70.5-74.5T543 202q0-103-71.5-160T292-15q-109 0-180 57T40 202q5 128 95 178zm157 217q-41 0-67-22.5T198 511q2-35 27.5-57.5T292 431t67 23 26 57q0 41-26 63.5T292 597zm0-271q-52 0-83.5-34T177 208q0-49 32-81t83-32 83 32 32 81q0 50-31.5 84T292 326z"/><glyph glyph-name="nine" unicode="9" horiz-adv-x="551" d="M270 712q66 0 114-24.5t75-68.5 39.5-98T511 402q0-153-84.5-267T202-13q-25-9-47-2.5T121 20q-23 57 25 72 82 25 135 64.5T360 266q-40-30-112-30-100 1-159 66T30 467q0 105 65.5 175T270 712zm-3-369q49 0 80 38t31 91q0 56-27.5 96T272 608q-55 0-84-41.5T159 469q1-58 27.5-92t80.5-34z"/><glyph glyph-name="colon" unicode=":" horiz-adv-x="281" d="M141 141q43 0 59-18.5T216 66q0-39-16-59t-59-20Q96-13 80.5 7T65 66q0 37 16.5 56t59.5 19zm0 380q43 0 59-19t16-57q0-39-16-59t-59-20q-45 0-60.5 20T65 445q0 38 16.5 57t59.5 19z"/><glyph glyph-name="semicolon" unicode=";" horiz-adv-x="285" d="M139 521q43 0 59-19t16-57q0-39-16-59t-59-20q-45 0-60.5 20T63 445q0 38 16.5 57t59.5 19zM88-149q-49 3-42 51L74 84q9 62 82 57 44-3 58-30.5T212 51l-65-162q-17-41-59-38z"/><glyph glyph-name="less" unicode="&lt;" horiz-adv-x="505" d="M436 124q18-10 26-22.5t7-37.5q-1-69-64-39L61 190q-51 25-51 72t51 72l344 165q63 30 64-39 1-26-6-38.5T436 399L170 262z"/><glyph glyph-name="equal" unicode="=" horiz-adv-x="567" d="M494 371H73q-38 0-38 55 0 56 38 56h421q38 0 38-56 0-55-38-55zm0-174H73q-38 0-38 55 0 56 38 56h421q38 0 38-56 0-55-38-55z"/><glyph glyph-name="greater" unicode="&gt;" horiz-adv-x="505" d="M69 124l267 138L69 399q-20 10-27 22.5T36 460q3 69 64 39l344-165q51-24 51-72t-51-72L100 25Q39-5 36 64q-1 25 7 37.5T69 124z"/><glyph glyph-name="question" unicode="?" horiz-adv-x="485" d="M24 601q31 48 85 73.5T226 701q93 2 159-48 80-61 74-161-3-51-29-88t-76-80q-55-45-84-105-16-32-57-27-43 5-39 43 3 32 23 66.5t31.5 47.5 47.5 51q48 50 48 97 1 44-28.5 69.5T221 592q-66 0-112-55-16-19-37-18.5T33 537q-14 13-16.5 30.5T24 601zm201-470q42 0 57.5-17.5T298 61q0-37-15.5-55.5T225-13q-43 0-58 18.5T152 61q0 35 16 52.5t57 17.5z"/><glyph glyph-name="at" unicode="@" horiz-adv-x="750" d="M543 436l-15-140q-3-24 10.5-32t37.5 13q34 32 36 100 2 97-62.5 162.5T385 605q-102-1-172.5-79T142 343q0-107 74.5-181T401 88q89 0 177 40 20 8 36.5 0T639 99q19-51-24-71-103-46-213-46-151 0-259 103.5T35 344q0 146 101.5 255.5T387 709q135 0 232.5-94T714 382q-1-54-21-105.5T635 194q-47-39-110-36-52 3-71 48-41-45-101-47-64-1-105 42t-43 110q-2 88 49 153t145 65h79q42 0 56-23t9-70zm-116-74l6 57q2 11-9 11h-24q-33 0-54.5-22T318 352q-7-32 1.5-60.5T359 264q58 0 68 98z"/><glyph glyph-name="A" unicode="A" horiz-adv-x="604" d="M373 277l-48 146q-16 49-23 96-7-47-23-96l-48-146h142zM192 160L153 40q-10-29-28-38T78-7Q58-7 44-4T20.5 10 18 40l207 620q17 50 77 50t77-50L586 40q9-27-9.5-37T526-7q-29 0-47 9t-28 38l-39 120H192z"/><glyph glyph-name="B" unicode="B" horiz-adv-x="600" d="M198 302V137q0-17 17-17h130q81 0 81 91t-93 91H198zm270 71q97-47 97-162 0-95-57.5-153T359 0H163q-45 0-71.5 18.5T65 88v524q0 51 26.5 69.5T163 700h170q94 0 150-49t56-142q0-44-19.5-80T468 373zm-149 49q40 0 60.5 21t20.5 58q0 79-81 79H215q-17 0-17-17V422h121z"/><glyph glyph-name="C" unicode="C" horiz-adv-x="596" d="M35 350q0 361 285 361 115 0 176-61t71-162q2-22-17-35t-47-13q-61-2-71 43-12 58-37.5 84.5T314 594q-45 0-75-21.5T195.5 512 177 435.5t-5-85.5q0-47 5-84.5t19-76.5 44-60.5 74-21.5q54 0 79.5 29t40.5 83q12 42 71 43 37 0 53.5-14t10.5-45q-17-92-79.5-153T314-11Q35-11 35 350z"/><glyph glyph-name="D" unicode="D" horiz-adv-x="613" d="M214 580q-17 0-17-17V138q0-17 17-17h87q40 0 69 21.5t44 57 21.5 73T442 350q0 55-11.5 104t-45 87.5T301 580h-87zM301 0H163q-45 0-71.5 18.5T65 89v523q0 51 26.5 69.5T163 700h138q71 0 126-28t87-77.5 48-111T578 350q0-152-68.5-251T301 0z"/><glyph glyph-name="E" unicode="E" horiz-adv-x="515" d="M215 580q-17 0-17-17V422h203q42 0 42-60t-42-60H198V137q0-17 17-17h223q42 0 42-60T438 0H163q-45 0-71.5 18.5T65 88v524q0 51 26.5 69.5T163 700h275q42 0 42-60t-42-60H215z"/><glyph glyph-name="F" unicode="F" horiz-adv-x="500" d="M215 580q-17 0-17-17V418h187q42 0 42-60t-42-60H198V38q0-47-66-47-67 0-67 47v574q0 51 26.5 69.5T163 700h270q42 0 42-60t-42-60H215z"/><glyph glyph-name="G" unicode="G" horiz-adv-x="622" d="M172 351q0-244 142-244 126 0 132 136 1 19-5 26t-23 7h-77q-40 0-40 57 0 56 40 56h142q52 0 71.5-21t21.5-65q3-67-10-122t-42.5-98.5-81.5-68T319-10q-75 0-130.5 28T100 96 51 210 35 351q0 345 279 360 105 0 169-47t81-136q11-60-58-60-41 0-58 8.5T426 505q-12 45-38 67t-74 22q-142 0-142-243z"/><glyph glyph-name="H" unicode="H" horiz-adv-x="620" d="M555 657V38q0-47-67-47-66 0-66 47v260H197V38q0-47-66-47T65 38v619q0 47 66 47t66-47V418h225v239q0 47 66 47 67 0 67-47z"/><glyph glyph-name="I" unicode="I" horiz-adv-x="263" d="M198 658V38q0-47-67-47-66 0-66 47v620q0 46 66 46 67 0 67-46z"/><glyph glyph-name="J" unicode="J" horiz-adv-x="424" d="M359 658V180q0-52-19.5-91.5t-52-61.5-74-32-85.5-7T42 5Q-4 21 8 83q5 23 21.5 35.5T67 124q42-15 82-13 77 1 77 92v455q0 46 66 46 67 0 67-46z"/><glyph glyph-name="K" unicode="K" horiz-adv-x="579" d="M352 430L570 51q14-29 .5-42.5T526-6q-74-3-104 48L259 326l-61-68V37q0-46-66-46-67 0-67 46v621q0 46 67 46 66 0 66-46V441l185 210q29 33 51.5 45.5T495 703q32-6 43.5-26.5T531 633z"/><glyph glyph-name="L" unicode="L" horiz-adv-x="469" d="M214 121h198q42 0 42-61 0-60-42-60H163q-45 0-71.5 18.5T65 89v574q0 46 66 46 67 0 67-46V138q0-17 16-17z"/><glyph glyph-name="M" unicode="M" horiz-adv-x="703" d="M576 705q62 0 62-48V38q0-47-64-47-65 0-65 47v405q-6-18-37-86l-77-152q-12-23-43-23-32 0-44 23l-76 152q-27 54-38 86V38q0-47-65-47-64 0-64 47v619q0 48 63 48 38 0 56-27 8-11 50-91l80-154 38-74q151 294 167 319 18 27 57 27z"/><glyph glyph-name="N" unicode="N" horiz-adv-x="644" d="M205 671l197-334q29-47 47-90v411q0 46 65 46t65-46V38q0-47-70-47-51 0-71 33L241 358q-27 46-46 94V38q0-47-65-47T65 38v620q0 46 69 46 53 0 71-33z"/><glyph glyph-name="O" unicode="O" horiz-adv-x="638" d="M35 350q0 361 284 361t284-361T319-11 35 350zm432 0q0 244-148 244-47 0-78-21.5T195.5 512 176 435.5t-5-85.5q0-243 148-243t148 243z"/><glyph glyph-name="P" unicode="P" horiz-adv-x="576" d="M198 264V38q0-47-67-47-66 0-66 47v574q0 51 26.5 69.5T163 700h177q91 0 151-61t60-156q0-96-59.5-157.5T340 264H198zm128 121q40 0 63 28t23 70q0 43-22.5 70T326 580H215q-17 0-17-17V385h128z"/><glyph glyph-name="Q" unicode="Q" horiz-adv-x="638" d="M332 170q48 8 73-24l4-6q58 56 58 211 0 48-5 85t-19.5 76-45.5 60.5-78 21.5q-148 0-148-243 0-239 142-244l-9 14q-25 40 28 49zM384-5q-25-5-65-5-152 0-218 94.5T35 351q0 360 284 360t284-360q0-231-112-313l70-89q19-27 6.5-42T517-114q-60-9-89 37z"/><glyph glyph-name="R" unicode="R" horiz-adv-x="610" d="M366 194q-19 42-44 65t-65 23h-60V38q0-47-66-47T65 38v574q0 51 26.5 69.5T163 700h176q92 0 152-57.5T551 490q0-67-34.5-114.5T429 308q46-33 78-104l19-45.5 25.5-58L576 57q20-30-2-48T518-9q-54 0-73 26-14 18-26.5 46T390 133t-24 61zm-41 202q40 0 63.5 26.5T412 490q0 42-22.5 66T325 580H214q-17 0-17-17V396h128z"/><glyph glyph-name="S" unicode="S" horiz-adv-x="548" d="M143 196q15-44 47-69t76-25q50 0 82.5 24.5T381 201q0 20-9.5 36T352 262t-31.5 18-31.5 12-33 9q-48 13-82.5 26.5t-71 37.5-56 61.5T27 514q0 91 67.5 144.5T253 712q204 0 249-167 6-23-8.5-39.5T451 486q-59-7-74 31-18 42-44.5 61T257 597q-40 0-68.5-20T160 515q0-18 9.5-33t19.5-23 30-16.5 29-11 30-7.5q40-10 68-19.5t62-27.5 55-39 35.5-55 14.5-76q0-103-67-162T268-14q-91 0-161.5 47T17 170q-10 51 43 63 27 6 50.5-2.5T143 196z"/><glyph glyph-name="T" unicode="T" horiz-adv-x="500" d="M57 700h386q42 0 42-60t-42-60H316V38q0-47-66-47-26 0-46 11t-20 36v542H57q-42 0-42 60t42 60z"/><glyph glyph-name="U" unicode="U" horiz-adv-x="635" d="M197 658V240q0-59 31.5-95t88.5-36 89 36 32 95v418q0 46 66 46t66-46V252q0-134-68-198.5T317-11q-116 0-184 64.5T65 252v406q0 46 66 46t66-46z"/><glyph glyph-name="V" unicode="V" horiz-adv-x="560" d="M542 658L363 41Q348-8 281-8q-66 0-81 49L18 658q-8 24 7.5 35T66 704q22 0 34.5-1.5t29-12.5 22.5-33l109-385q12-41 20-89 10 54 20 88l110 386q6 22 22 33t29 12.5 35 1.5q24 0 38.5-11t6.5-35z"/><glyph glyph-name="W" unicode="W" horiz-adv-x="837" d="M417 704q52 0 61-47l81-376q9-29 19-94 2 16 21 94l87 376q10 47 80 47 25 0 42.5-12.5T820 654L669 41Q657-8 583-8q-67 0-79 49l-71 294q-11 41-16 75-3-19-15-75L331 41Q319-8 251-8q-73 0-85 47L17 654q-6 25 11.5 37.5T71 704q71 0 81-47l84-376q16-67 21-94 11 69 18 94l81 376q11 47 61 47z"/><glyph glyph-name="X" unicode="X" horiz-adv-x="542" d="M271 479l101 178q15 28 34.5 37.5T467 704q27 0 43.5-11.5T513 656L343 356 521 42q14-25-3-37.5T474-9q-74-2-99 44L271 229 167 35Q142-11 68-9 41-8 24 4.5T21 42l178 314L30 656q-14 25 2 36.5T75 704q41 0 60.5-9.5T170 657z"/><glyph glyph-name="Y" unicode="Y" horiz-adv-x="523" d="M196 333L12 651q-14 25-.5 39T50 704q43 0 62.5-9.5T147 658l116-213 115 213q15 27 37 36.5t64 9.5q24 0 34-11.5t-3-39.5L329 333V38q0-47-66-47-67 0-67 47v295z"/><glyph glyph-name="Z" unicode="Z" horiz-adv-x="502" d="M424 0H62Q15 0 15 59q0 34 15 59l238 395q25 42 43 67H59q-42 0-42 60t42 60h361q47 0 47-59 0-32-15-59L217 185q-23-38-45-64h252q42 0 42-61 0-60-42-60z"/><glyph glyph-name="bracketleft" unicode="[" horiz-adv-x="280" d="M144 700h94q37 0 37-46 0-49-38-49h-47q-17 0-17-15V-64q0-15 17-15h47q38 0 38-49 0-46-37-46h-94q-79 0-79 80v714q0 80 79 80z"/><glyph glyph-name="backslash" unicode="\" horiz-adv-x="498" d="M114 660l373-787q20-44-25-52-58-11-78 33L11 641q-11 23 0 38.5T48 697q47 1 66-37z"/><glyph glyph-name="bracketright" unicode="]" horiz-adv-x="281" d="M137 700q79 0 79-80V-94q0-80-79-80H42q-35 0-37 46 0 49 38 49h48q16 0 16 15v654q0 15-16 15H43q-38 0-38 49 2 46 37 46h95z"/><glyph glyph-name="asciicircum" unicode="^" horiz-adv-x="501" d="M250 579L139 399q-24-40-74-29-23 5-28.5 24t7.5 41l120 219q16 31 34.5 45t51.5 14q32 0 51-14t36-45l120-219q13-22 7.5-41T436 370q-49-11-75 29z"/><glyph glyph-name="underscore" unicode="_" horiz-adv-x="543" d="M499-165H44q-39 0-39 56 0 55 39 55h455q39 0 39-55 0-56-39-56z"/><glyph glyph-name="grave" unicode="`" horiz-adv-x="221" d="M192 596q15-35-24-40-36-7-58 17l-60 67q-17 19-13.5 36T65 698q10 2 40 2 40 0 55-30z"/><glyph glyph-name="a" unicode="a" d="M357 41q-61-52-150-52-71 0-121.5 45T35 153q0 200 301 182 1 89-79 89-20 0-34.5-1t-32-6.5T166 408l-33-14q-40-17-64 11-15 17-13 42t23 38q78 47 180 47 93 0 152-46.5T470 341V110q0-19 4-67 2-25-11-35T424-3q-26 0-41 10t-26 34zm-21 196q-21 4-50 1t-55-8.5-44-25.5-17-51q1-26 20-41t50-15q51 0 77 41t19 99z"/><glyph glyph-name="b" unicode="b" horiz-adv-x="585" d="M191 35q-7-44-65-44-61 0-61 50v618q0 48 67 48t67-48V494q15 15 51 26.5t67 11.5q213 0 213-271 0-126-54-199T314-11q-75 0-123 46zm8 243v-44q0-53 25-97t71-44q95 0 95 168 0 167-95 167-34 0-57-25t-31-57-8-68z"/><glyph glyph-name="c" unicode="c" horiz-adv-x="509" d="M35 259q0 269 229 269 85 0 140.5-40.5T468 379q4-30-9.5-43T410 323q-50 1-61 36-10 34-29.5 50T264 425q-100 0-100-166T264 93q60 0 88 65 14 35 64 37 31 1 46.5-12t9.5-39q-16-71-69.5-112.5T264-10Q35-10 35 259z"/><glyph glyph-name="d" unicode="d" horiz-adv-x="565" d="M253 532q64 0 113-38v165q0 48 67 48t67-48V41q0-50-61-50-58 0-65 44-46-46-121-46-112 0-165 72.5T35 261q0 271 218 271zm15-439q46 0 72 45t26 96v44q0 32-8.5 64t-32 59-57.5 27q-93 0-93-167 0-168 93-168z"/><glyph glyph-name="e" unicode="e" horiz-adv-x="518" d="M273 428q-43 0-68.5-28T174 324h164q19 0 18 22-3 39-25.5 60.5T273 428zm195-310q-19-63-71.5-97.5T271-14Q154-13 95 65T35 262q0 55 13 102t39.5 85 72.5 60 107 22q101 0 158.5-58.5T482 317q-1-49-22-67.5T391 231H170q2-59 25-97.5T274 96q30 0 48 13t32 40q15 29 73 23 30-3 38.5-19.5T468 118z"/><glyph glyph-name="f" unicode="f" horiz-adv-x="343" d="M95 39v371H63q-48 0-48 54t48 54h32v15q0 89 41 132.5T279 709q28 0 44-4 35-9 35-59-1-29-10.5-41T314 594q-6 1-20 1-65-2-65-60v-17h44q48 0 48-54t-48-54h-44V39q0-48-67-48T95 39z"/><glyph glyph-name="g" unicode="g" horiz-adv-x="565" d="M374 485q7 43 65 43 61 0 61-50V48q0-100-47-160.5T320-190q-108-22-206 8-48 15-40 79 3 27 18.5 39.5T130-58q95-34 165-11 71 23 71 101Q324-5 254-5 35-5 35 258q0 272 219 272 72 0 120-45zm-8-244v44q0 50-25 95.5T270 426q-95 0-95-168 0-159 95-159 49 0 72.5 44t23.5 98z"/><glyph glyph-name="h" unicode="h" horiz-adv-x="563" d="M199 658V477q59 58 140 58 169 0 169-179V39q0-48-67-48t-67 48v288q0 88-59 88-63 0-89.5-45.5T199 260V39q0-48-67-48T65 39v618q0 50 67 50t67-49z"/><glyph glyph-name="i" unicode="i" horiz-adv-x="276" d="M205 480V39q0-48-67-48T71 39v441q0 48 67 48t67-48zm-67 227q40 0 56.5-17t16.5-49q0-33-15.5-51.5T138 571q-43 0-58 18t-15 52q0 33 16 49.5t57 16.5z"/><glyph glyph-name="j" unicode="j" horiz-adv-x="280" d="M209 480V-16q0-85-53.5-126T13-174q-48 5-48 69 0 30 15 43.5T27-48q48 0 48 59v469q0 48 67 48t67-48zm-67 227q41 0 57-16.5t16-49.5q0-34-15-52t-58-18q-42 0-57.5 18.5T69 641t16 49.5 57 16.5z"/><glyph glyph-name="k" unicode="k" horiz-adv-x="504" d="M200 658V349l138 142q47 49 109 35 31-8 38-28.5T472 457L332 316 488 51q14-23-5-41.5T432-11q-34-2-48.5 6.5T355 29L243 226l-43-44V40q0-49-69-49-66 0-66 49v618q0 49 66 49 69 0 69-49z"/><glyph glyph-name="l" unicode="l" horiz-adv-x="264" d="M199 658V39q0-48-67-48T65 39v619q0 49 67 49t67-49z"/><glyph glyph-name="m" unicode="m" horiz-adv-x="846" d="M339 535q96 0 141-78 63 78 155 78 80 0 118-45t38-138V39q0-48-67-48t-67 48v288q0 88-58 88-56 0-80-40t-24-97V39q0-48-67-48-68 0-68 48v281q0 95-61 95-53 0-76.5-40.5T199 275V39q0-48-67-48T65 39v442q0 48 59 48 58 0 64-49l2-12q54 67 149 67z"/><glyph glyph-name="n" unicode="n" horiz-adv-x="563" d="M189 480l2-12q54 67 148 67 169 0 169-179V39q0-48-67-48t-67 48v288q0 36-14.5 62T309 415q-58 0-84-39.5T199 276V39q0-48-67-48T65 39v442q0 47 59 47 30 0 45.5-10t19.5-38z"/><glyph glyph-name="o" unicode="o" horiz-adv-x="528" d="M35 259q0 269 229 269t229-269T264-10 35 259zm329 0q0 33-3.5 58T348 369t-30.5 41.5T264 425t-53-14.5-30.5-41.5-12.5-52-3-58q0-166 99-166 100 0 100 166z"/><glyph glyph-name="p" unicode="p" horiz-adv-x="566" d="M191 486q19 20 52 32.5t68 12.5q220 0 220-271 0-126-54.5-199T311-12q-72 0-112 39v-165q0-48-67-48t-67 48v617q0 51 61 51 58 0 65-44zm8-244q0-57 25-103.5T298 92q92 0 92 168 0 167-92 167-47 0-73-43.5T199 287v-45z"/><glyph glyph-name="q" unicode="q" horiz-adv-x="566" d="M375 487q7 41 65 41 61 0 61-48v-617q0-49-67-49t-67 49V27q-38-38-112-38-111 0-165.5 73T35 260q0 272 220 272 35 0 68-12.5t52-32.5zm-8-244v44q0 53-26 97t-73 44q-92 0-92-168 0-167 92-167 49 0 74 46.5T367 243z"/><glyph glyph-name="r" unicode="r" horiz-adv-x="368" d="M188 479q35 49 100 55 39 3 54.5-10t15.5-44q0-26-2-38.5t-12.5-22T311 409q-112-5-112-123V39q0-48-67-48T65 39v442q0 47 56 47 51 0 63-36z"/><glyph glyph-name="s" unicode="s" horiz-adv-x="475" d="M83 182q53 8 71-31 29-57 95-57 27 0 49.5 14.5T322 149q0 27-24.5 39.5T211 214q-37 8-64 18t-54 27.5-41 46T38 372q0 74 59 117t137 43q150 0 189-112 9-26-1-39.5T383 363q-57-7-80 25-27 40-70 40-70 0-70-45 0-41 99-58 43-8 73-18.5t58-28.5 42.5-47 14.5-69q0-83-58.5-129T250-13Q91-13 42 108q-26 62 41 74z"/><glyph glyph-name="t" unicode="t" horiz-adv-x="383" d="M95 607q0 48 67 48t67-48v-89h56q48 0 48-54t-48-54h-56V178q0-36 19-52t63-11q32 4 44.5-10.5T368 58q0-42-30-56-26-11-70-11-94 0-133.5 46.5T95 170v240H63q-48 0-48 54t48 54h32v89z"/><glyph glyph-name="u" unicode="u" horiz-adv-x="557" d="M369 39l-3 11q-56-65-142-65Q55-15 55 164v316q0 48 67 48t67-48V193q0-88 59-88 58 0 84 38t26 97v240q0 48 67 48t67-48V41q0-50-61-50-51 0-62 48z"/><glyph glyph-name="v" unicode="v" horiz-adv-x="491" d="M161 481l63-223q5-17 12-51t10-47q4 14 10 47.5t11 50.5l64 223q14 48 84 48 30 0 48-11t10-37L331 39Q316-9 246-9q-71 0-86 48L18 481q-8 26 10 37t48 11q71 0 85-48z"/><glyph glyph-name="w" unicode="w" horiz-adv-x="721" d="M155 483l56-224q8-31 16-84 6 38 18 81l59 227q10 39 56 39t56-39l59-227q12-43 18-81 8 53 16 84l57 224q12 47 83 45 29 0 45-10.5t9-37.5L586 50q-9-31-28.5-45T497-9q-65 0-83 70l-35 132q-16 56-19 88-1-11-19-88L306 61Q288-9 223-9q-41 0-60.5 14T134 50L18 480q-8 27 8.5 37.5T73 528q70 0 82-45z"/><glyph glyph-name="x" unicode="x" horiz-adv-x="461" d="M42 458q-14 22-9 35.5t18 20 34 8.5q17 1 31.5 1t27.5-7 20-21l67-126 66 126q11 20 30 24.5t50 2.5q33-3 45.5-17t-3.5-47L303 270 434 65q19-28 9-47T398-2q-19-1-35-.5T332 6t-24 24l-77 143-78-143q-9-16-23.5-24t-31-8.5T63-2Q28-1 18 18t9 47l132 205z"/><glyph glyph-name="y" unicode="y" horiz-adv-x="480" d="M458 454L275-66Q230-195 83-171q-41 7-41 62 0 30 13 45t42 11q23-3 42.5 9T167-10l15 44L22 451q-24 66 43 72 68 8 81-28l99-275 94 275q12 36 80 28 33-3 42-18.5t-3-50.5z"/><glyph glyph-name="z" unicode="z" horiz-adv-x="415" d="M73 518h274q48 0 48-54 0-33-18-59L217 165q-25-37-49-57h184q48 0 48-54T352 0H65Q15 0 15 54q0 35 14 57l164 245q24 36 43 54H73q-48 0-48 54t48 54z"/><glyph glyph-name="braceleft" unicode="{" horiz-adv-x="295" d="M62 313q29 9 29 62v173q0 77 44 115.5T257 700q33 0 33-48t-32-48q-33-1-45.5-15.5T200 540V372q0-74-48-109 48-30 48-110V-15q0-34 12.5-48.5T258-79q32 0 32-48t-33-48q-77-2-121.5 37T91-22v172q0 53-29 63-27 9-27 50t27 50z"/><glyph glyph-name="bar" unicode="|" horiz-adv-x="228" d="M163 671v-823q0-35-49-35t-49 35v823q0 34 49 34t49-34z"/><glyph glyph-name="braceright" unicode="}" horiz-adv-x="295" d="M233 313q27-9 27-50t-27-50q-29-10-29-63V-22q0-77-44.5-116T38-175q-33 0-33 48t33 48q32 1 44.5 15.5T95-15v168q0 79 48 110-48 35-48 109v168q0 34-12.5 48.5T38 604q-33 0-33 48t33 48q78 2 122-36.5T204 548V375q0-53 29-62z"/><glyph glyph-name="asciitilde" unicode="~" horiz-adv-x="565" d="M408 266q-62-8-143 26-51 20-84 20-40 2-73-27-35-30-66 1-31 28-7 59 52 66 125 77 63 8 144-25 49-21 84-21 42 0 73 27 34 30 67-3 25-23-1-58-46-65-119-76z"/><glyph glyph-name="exclamdown" unicode="¡" horiz-adv-x="264" d="M132-187q-80 0-76 62l30 420q3 36 46 36t46-36l30-420q4-62-76-62zm0 571q-42 0-58.5 18.5T57 457q0 35 15.5 54t59.5 19q75 0 75-73 0-36-16.5-54.5T132 384z"/><glyph glyph-name="cent" unicode="¢" horiz-adv-x="508" d="M217-6l-41-143q-4-16-19.5-23.5T126-177q-43 2-30 47l44 148Q35 77 35 259q0 270 229 270h20l46 154q5 26 45 24 20 0 27.5-13t1.5-33l-42-152q94-40 106-129 3-31-10.5-43T408 325q-48 0-62 34-5 27-15 37L248 95q3-1 16-1 58 0 89 63 11 35 61 38 32 2 47.5-11.5T471 144q-16-72-68.5-112T264-8q-21 0-47 2zm-40 159l79 274q-93-8-93-168 0-61 14-106z"/><glyph glyph-name="sterling" unicode="£" horiz-adv-x="574" d="M371 298h-90q9-79-46-160 55 5 108-9 47-15 74.5-15t56.5 17q56 26 82-28 22-46-17-78Q496-8 427-8q-34 0-87 16t-69 19q-14 4-28.5 4.5t-23 .5-25.5-5.5-21-7-26-11T122-2Q95-13 76-4T45 26q-14 25-8 47.5T67 110q44 29 66 88t16 100h-27q-24 0-38.5 17T69 357q0 23 12.5 39.5T118 413l-6.5 26.5-6.5 29-4 27-1 31.5q7 92 68 139.5T323 714q90 0 144-42t65-120q6-28-5.5-47T488 483q-28-3-51 7.5T408 523q-9 39-26 57.5T320 599q-83-3-85-76-2-26-.5-37.5t8.5-37 9-34.5h119q24 0 38.5-16t14.5-41-14.5-42-38.5-17z"/><glyph glyph-name="currency" unicode="¤" horiz-adv-x="606" d="M355 384q39 0 62.5 28.5T441 485q0 42-23 68.5T355 580H243q-17 0-17-17V384h129zm20-167q52 0 52-60 0-59-52-59H226V37q0-45-65-45-68 0-68 45v61H72q-52 0-52 59 0 60 52 60h21v49H72q-52 0-52 60 0 58 52 58h21v228q0 52 26.5 70t71.5 18h177q92 0 152.5-60.5T581 485q0-97-60.5-158T368 266H226v-49h149z"/><glyph glyph-name="yen" unicode="¥" horiz-adv-x="524" d="M197 228H95q-49 0-49 52 0 55 49 55h100L12 649q-14 25 .5 40T52 706q41 1 61.5-10t35.5-41l115-210 114 210q15 30 38 41t66 10q14-1 23-6t13-16.5-8-30.5L331 335h99q52 0 52-55 0-21-12.5-36.5T430 228h-99v-41h99q27 0 39.5-16t12.5-39q0-24-12.5-40T430 76h-99V39q0-46-67-46t-67 46v37H95q-49 0-49 56 0 55 49 55h102v41z"/><glyph glyph-name="brokenbar" unicode="¦" horiz-adv-x="232" d="M167 133v-290q0-45-54-45-48 0-48 45v290q0 44 48 44 54 0 54-44zm0 534V376q0-44-54-44-48 0-48 44v291q0 41 48 41 54 0 54-41z"/><glyph glyph-name="section" unicode="§" horiz-adv-x="507" d="M113 18q56 6 64-31 8-33 30.5-52T264-84q29 0 50 15t21 45q0 48-97 83-43 15-73 30t-59 39-44 58-14 77q1 78 56 142-58 55-58 128 0 82 57.5 128T244 707q72 0 128-36.5T442 566q12-52-47-57-27-2-43.5 3.5T331 540q-7 32-31 49t-58 17q-29 0-49-14.5T173 546q0-46 97-79 90-32 140-77t50-127q0-78-56-142 58-55 58-131 0-80-57-125.5T267-181q-74 0-131.5 37.5T65-35q-8 48 48 53zm80 333q-18-26-20-68-2-50 60-78 15-7 43.5-16.5T315 175q18 26 20 68 1 49-55 76-16 8-48 18.5T193 351z"/><glyph glyph-name="dieresis" unicode="¨" horiz-adv-x="340" d="M252 700q63 0 63-60 0-30-14-44.5T252 581q-59 0-59 59 0 60 59 60zm-167 0q59 0 59-60 0-30-13-44.5T85 581q-34 0-47 14.5T25 640q0 60 60 60z"/><glyph glyph-name="copyright" unicode="©" horiz-adv-x="774" d="M387 709q141 0 246.5-106T739 347q0-94-46-177.5T565.5 35 387-16Q242-16 138.5 90.5T35 347t103 256 249 106zm0-632q105 0 183.5 79.5T649 347q0 107-76.5 188T387 616t-185.5-78.5T125 347t76.5-191T387 77zm4 490q52 0 94-27.5t59-78.5q9-26 .5-38T513 406q-27-6-42.5 1.5T445 440q-13 38-55 38-46 0-64-39t-18-90 19-88.5 64-37.5q20 0 37 12t24 33q8 22 20.5 28.5T508 301q55-5 36-63-15-48-57-76.5T391 133q-93 1-138 60.5T208 349t45 157 138 61z"/><glyph glyph-name="guillemotleft" unicode="«" horiz-adv-x="376" d="M190 300l65 113q19 32 61 19 34-9 21-44l-37-104q-4-9-4-16 0-6 4-17l37-103q13-35-21-44-42-13-61 19l-65 112q-11 20-11 33 0 14 11 32zm-144 0l66 113q18 33 60 19 34-9 22-44l-38-104q-4-9-4-16 0-6 4-17l38-103q12-35-22-44-42-14-60 19L46 235q-11 24-11 33 0 10 11 32z"/><glyph glyph-name="logicalnot" unicode="¬" horiz-adv-x="547" d="M411 507q86 0 86-81V249q0-41-48-41-47 0-47 41v135q0 17-18 17H79q-44 0-44 52 0 54 44 54h332z"/><glyph glyph-name="uni00AD" unicode="­" horiz-adv-x="350" d="M276 206H73q-38 0-38 55 0 56 38 56h203q39 0 39-56 0-55-39-55z"/><glyph glyph-name="registered" unicode="®" horiz-adv-x="774" d="M387 709q146 0 249-106t103-256T636 90.5 387-16Q242-16 138.5 90.5T35 347t103 256 249 106zm0-93q-109 0-185.5-78.5T125 347t76.5-191T387 77t185.5 79T649 347t-76.5 190.5T387 616zm-88-472q-50-2-50 37v304q0 34 21 52.5t56 18.5h83q61 0 100.5-35t39.5-96q0-34-18.5-60T483 329q25-18 44-69t28-65q12-19-2.5-31T517 150q-26-2-41.5 2T449 174q-12 21-23 64-7 30-18.5 45.5T373 299h-26V180q0-36-48-36zm48 241h53q47 0 47 41 0 40-45 40h-44q-11 0-11-12v-69z"/><glyph glyph-name="degree" unicode="°" horiz-adv-x="365" d="M183 649q-29 0-48-19t-19-46q0-29 19-48.5t48-19.5q28 0 48.5 19.5T252 584q0 27-21 46t-48 19zm0 67q54 0 93-39.5t39-92.5q0-56-38.5-95T183 450q-54 0-93.5 39T50 584q0 53 40 92.5t93 39.5z"/><glyph glyph-name="plusminus" unicode="±" horiz-adv-x="567" d="M340 597V444h155q37 0 37-54 0-57-37-57H340V177q0-38-55-38-57 0-57 38v156H74q-39 0-39 57 0 54 39 54h154v153q0 22 16.5 32t40.5 10q23 0 39-10t16-32zM495 0H74Q35 0 35 56q0 53 39 53h421q37 0 37-53 0-56-37-56z"/><glyph glyph-name="twosuperior" unicode="²" horiz-adv-x="344" d="M266 343H83q-20 0-34 12t-14 34q0 27 26.5 54.5t70 58T187 543q24 27 24 50 0 16-11 27t-32 11q-13 0-22.5-5.5t-13-12T125 597q-7-31-49-25-16 1-27 10.5T39 610q4 47 42 75.5t88 28.5q58 0 95.5-32.5T302 593q0-29-17-56t-33.5-41-50-37-42.5-30h107q20 0 31.5-12.5T309 384q0-19-11.5-30T266 343z"/><glyph glyph-name="threesuperior" unicode="³" horiz-adv-x="326" d="M80 700h164q43 0 43-39 0-10-14-35l-64-58q40-12 66-40t26-66q0-60-37-95t-98-35q-92 0-126 70-7 17-2 30.5T56 453q12 8 29 6t26-15q18-32 56-32 18 0 30.5 11.5T210 456q1 30-23 38.5t-47-.5q-33-4-44 22-15 25 8 49l49 52H80q-18 0-27.5 10.5T43 655q0 45 37 45z"/><glyph glyph-name="acute" unicode="´" horiz-adv-x="232" d="M54 596l35 74q14 30 53 30 27 0 39-2 27-5 30-22t-15-36l-59-67q-23-24-58-17-39 5-25 40z"/><glyph glyph-name="mu" unicode="µ" horiz-adv-x="595" d="M404 50Q372-9 299-9q-33 0-61.5 16.5T194 51v-182q0-25-17.5-40.5T133-187q-27 0-47.5 15.5T65-131v610q0 26 19.5 39t48.5 13q61 0 61-52V273q0-79 31.5-126t74.5-47q38 0 63 32t33 69 8 75v203q0 52 62 52 27 0 45.5-13t18.5-39V42q0-26-16.5-40T472-12q-65 0-68 62z"/><glyph glyph-name="mu" unicode="μ" horiz-adv-x="595" d="M404 50Q372-9 299-9q-33 0-61.5 16.5T194 51v-182q0-25-17.5-40.5T133-187q-27 0-47.5 15.5T65-131v610q0 26 19.5 39t48.5 13q61 0 61-52V273q0-79 31.5-126t74.5-47q38 0 63 32t33 69 8 75v203q0 52 62 52 27 0 45.5-13t18.5-39V42q0-26-16.5-40T472-12q-65 0-68 62z"/><glyph glyph-name="paragraph" unicode="¶" horiz-adv-x="639" d="M305 610h-49q-50 0-74.5-18T157 527q0-48 28-66.5t78-18.5h42v168zM35 527q0 173 222 173h307q41 0 39-48 0-42-39-42h-20v-749q0-38-47-38-45 0-45 39l-1 748h-54v-748q0-41-47-39-45 0-45 39v497h-48Q35 359 35 527z"/><glyph glyph-name="periodcentered" unicode="·" horiz-adv-x="327" d="M163 278q-42 0-57.5 18.5T90 351q0 35 15.5 54t57.5 19q44 0 59-19t15-54-16-54-58-19z"/><glyph glyph-name="cedilla" unicode="¸" horiz-adv-x="294" d="M172 6l-14-30q108-2 111-82 0-59-55-89-31-14-73-14-60 0-93 15-29 15-21 49 6 16 19 22.5t32-2.5q30-12 61-12 36 0 36 27 0 26-37 28-8 0-21-.5t-16-.5q-22-2-30.5 10T70-41L85 6h87z"/><glyph glyph-name="onesuperior" unicode="¹" horiz-adv-x="273" d="M223 663V376q0-20-12.5-30.5T179 335q-47 0-47 41v220l-33-20q-20-9-36-4t-25 19q-13 36 26 56l79 50q26 16 58 5 22-11 22-39z"/><glyph glyph-name="ordmasculine" unicode="º" horiz-adv-x="409" d="M374 520q0-85-44-136-48-51-124-51-78 0-126 51-45 48-45 136 0 85 45 134 48 53 126 53 76 0 124-53 44-51 44-134zm-243 0q0-48 21-80 20-26 54-26t50 26q22 24 22 80t-22 79q-16 26-50 26-36 0-54-26-21-30-21-79z"/><glyph glyph-name="guillemotright" unicode="»" horiz-adv-x="376" d="M186 300q11-18 11-32 0-13-11-33l-65-112q-18-33-61-19-34 9-21 44l38 103q3 12 3 17 0 6-3 16L39 388q-13 35 21 44 43 14 61-19zm144 0q11-18 11-32 0-13-11-33l-65-112q-19-32-61-19-34 9-21 44l37 103q4 11 4 17 0 7-4 16l-37 104q-13 35 21 44 42 13 61-19z"/><glyph glyph-name="onequarter" unicode="¼" horiz-adv-x="727" d="M225 663V376q0-41-47-41-20 0-34 10.5T130 376v220l-31-20q-21-9-36.5-4T40 591q-16 32 21 56l82 50q25 16 58 5 24-11 24-39zm424-348V145q43 0 43-41 0-18-12-29t-31-11V25q0-37-47-37-45 0-45 37v39H436q-29 0-39 23.5t7 45.5l129 190q25 34 62 34 23 0 38.5-10.5T649 315zm-92-101l-49-69h49v69zm36 449L208 13q-18-36-60-36-24 0-35.5 13.5T113 26l382 653q19 37 58 37 27 0 40-14.5t0-38.5z"/><glyph glyph-name="onehalf" unicode="½" horiz-adv-x="770" d="M593 663L210 13q-23-36-60-36-27 0-38 13.5t2 35.5l381 653q19 37 57 37 28 0 41-14.5t0-38.5zM698 0H512q-21 0-34 12.5T465 45q0 28 26.5 55.5t70 58T618 202q23 20 23 49 0 36-45 36-31 0-41-33-4-14-18.5-21t-30.5-5q-18 3-29 12t-10 25q1 49 41.5 78t91.5 27q58 0 95-31t37-88q0-29-16-55.5t-34-41-49.5-37T589 84h109q17 0 27-11.5T735 43q0-19-10-31T698 0zM224 663V376q0-20-14-30.5T177 335q-20 0-34 10.5T129 376v220l-32-20q-21-9-36-4t-22 19q-16 35 25 56l81 50q23 17 54 5 25-10 25-39z"/><glyph glyph-name="threequarters" unicode="¾" horiz-adv-x="753" d="M676 315V145q42 0 42-41 0-18-11.5-29T676 64V25q0-18-14-27.5T628-12t-33.5 9.5T581 25v39H461q-27 0-38 23.5t5 45.5l129 190q27 34 64 34 23 0 39-11t16-31zm-95-101l-48-69h48v69zm45 449L244 13q-23-36-62-36-26 0-37.5 13.5T145 26l383 653q22 37 58 37 25 0 38.5-14.5T626 663zM85 700h163q18 0 30.5-11t12.5-28q0-14-19-35l-63-58q43-12 70-39.5t27-66.5q0-59-38.5-94.5T166 332q-91 0-127 70-15 33 18 51 11 8 27.5 6t26.5-15q21-32 58-32 19 0 31 11.5t12 32.5q0 30-24 38.5t-46-.5q-32-3-46 22-15 22 8 49l48 52H85q-18 0-30 11t-12 27q0 20 12 32.5T85 700z"/><glyph glyph-name="questiondown" unicode="¿" horiz-adv-x="484" d="M258 384q-42 0-57.5 18.5T185 457q0 73 73 73 43 0 59.5-19t16.5-54q0-36-17-54.5T258 384zM459-84q-65-99-202-102-94-2-158 49Q18-74 26 25q2 50 28.5 88t75.5 77q56 55 83 108 18 34 57 27 44-6 41-45-2-15-5.5-28.5t-11.5-27l-13.5-23-17.5-24-17.5-20.5-20.5-21.5-18-19.5q-50-56-50-98t30.5-68.5T261-77q67 0 115 56 14 19 34.5 19T449-21q16-11 19-30t-9-33z"/><glyph glyph-name="Agrave" unicode="À" horiz-adv-x="604" d="M373 277l-48 146q-16 49-23 96-7-47-23-96l-48-146h142zM192 160L153 40q-10-29-28-38T78-7Q58-7 44-4T20.5 10 18 40l207 620q17 50 77 50t77-50L586 40q9-27-9.5-37T526-7q-29 0-47 9t-28 38l-39 120H192zm156 626q15-35-24-40-36-7-58 17l-60 67q-17 19-13.5 36t28.5 22q10 2 40 2 40 0 55-30z"/><glyph glyph-name="Aacute" unicode="Á" horiz-adv-x="604" d="M373 277l-48 146q-16 49-23 96-7-47-23-96l-48-146h142zM192 160L153 40q-10-29-28-38T78-7Q58-7 44-4T20.5 10 18 40l207 620q17 50 77 50t77-50L586 40q9-27-9.5-37T526-7q-29 0-47 9t-28 38l-39 120H192zm73 626l35 74q14 30 53 30 27 0 39-2 27-5 30-22t-15-36l-59-67q-23-24-58-17-39 5-25 40z"/><glyph glyph-name="Acircumflex" unicode="Â" horiz-adv-x="604" d="M373 277l-48 146q-16 49-23 96-7-47-23-96l-48-146h142zM192 160L153 40q-10-29-28-38T78-7Q58-7 44-4T20.5 10 18 40l207 620q17 50 77 50t77-50L586 40q9-27-9.5-37T526-7q-29 0-47 9t-28 38l-39 120H192zm71 730h76q23 0 40-17l57-75q17-17 13-31.5T420 746q-32-8-55 13l-65 60-62-60q-24-21-56-13-24 6-28 20.5t11 31.5l61 75q15 17 37 17z"/><glyph glyph-name="Atilde" unicode="Ã" horiz-adv-x="604" d="M373 277l-48 146q-16 49-23 96-7-47-23-96l-48-146h142zM192 160L153 40q-10-29-28-38T78-7Q58-7 44-4T20.5 10 18 40l207 620q17 50 77 50t77-50L586 40q9-27-9.5-37T526-7q-29 0-47 9t-28 38l-39 120H192zm2 615q-20-26-44-14-12 2-18 14.5t-4 25.5q7 36 38 61 29 24 68 24 38 0 75-24t57-24q28 0 42 30 8 24 41 18 32-9 23-36-10-45-32-67t-64-22q-31 0-72.5 22.5T236 806q-27 0-42-31z"/><glyph glyph-name="Adieresis" unicode="Ä" horiz-adv-x="604" d="M373 277l-48 146q-16 49-23 96-7-47-23-96l-48-146h142zM192 160L153 40q-10-29-28-38T78-7Q58-7 44-4T20.5 10 18 40l207 620q17 50 77 50t77-50L586 40q9-27-9.5-37T526-7q-29 0-47 9t-28 38l-39 120H192zm192 730q63 0 63-60 0-30-14-44.5T384 771q-59 0-59 59 0 60 59 60zm-167 0q59 0 59-60 0-30-13-44.5T217 771q-34 0-47 14.5T157 830q0 60 60 60z"/><glyph glyph-name="Aring" unicode="Å" horiz-adv-x="604" d="M304 810q-20 0-33.5-12.5T257 766q0-18 13.5-31.5T304 721q18 0 31 13.5t13 31.5q0 19-13 31.5T304 810zm0 45q36 0 61-26.5t25-62.5q0-40-26-64L585 41q11-28-7.5-37.5T525-6q-28 0-45.5 9T452 41l-38 119H193L153 41q-10-29-27.5-38T80-6Q60-6 46-3.5T22 10t-4 31l221 663q-25 25-25 62 0 36 26 62.5t64 26.5zm-73-579h145l-50 148q-14 40-22 94-15-64-25-94z"/><glyph glyph-name="AE" unicode="Æ" horiz-adv-x="891" d="M273 276h164v304q-24 0-35-21zm538 304H588q-16 0-16-17V421h201q44 0 44-60 0-58-44-58H572V138q0-11 3.5-14.5T588 120h223q45 0 45-59 0-61-45-61H534q-97 0-97 86v74H221L168 41Q144-6 80-6 64-6 53-4.5T29.5 2 16 16t4 25l266 572q22 49 57.5 68t90.5 19h377q45 0 45-60t-45-60z"/><glyph glyph-name="Ccedilla" unicode="Ç" horiz-adv-x="595" d="M35 351q0 172 66 266t219 94q114 0 174.5-61T565 487q2-21-17.5-33.5T501 441q-31 0-48 8.5T432 482q-14 61-39 87.5T312 596q-145 0-145-245t145-245q55 0 80 29t41 86q12 42 71 42 37 0 53-14t11-47q-17-87-75-146T332-8l-8-16q109-2 109-82 0-60-54-89-29-14-71-14-60 0-91 15-31 13-23 49 4 15 17 22t30-2q42-12 65-12 17 0 27 7.5t10 19.5q0 26-43 28-6 0-17.5-.5T269-83q-22-2-32 10t-4 32l14 37Q35 31 35 351z"/><glyph glyph-name="Egrave" unicode="È" horiz-adv-x="515" d="M215 580q-17 0-17-17V422h203q42 0 42-60t-42-60H198V137q0-17 17-17h223q42 0 42-60T438 0H163q-45 0-71.5 18.5T65 88v524q0 51 26.5 69.5T163 700h275q42 0 42-60t-42-60H215zm108 206q15-35-24-40-36-7-58 17l-60 67q-17 19-13.5 36t28.5 22q10 2 40 2 40 0 55-30z"/><glyph glyph-name="Eacute" unicode="É" horiz-adv-x="515" d="M215 580q-17 0-17-17V422h203q42 0 42-60t-42-60H198V137q0-17 17-17h223q42 0 42-60T438 0H163q-45 0-71.5 18.5T65 88v524q0 51 26.5 69.5T163 700h275q42 0 42-60t-42-60H215zm15 206l35 74q14 30 53 30 27 0 39-2 27-5 30-22t-15-36l-59-67q-23-24-58-17-39 5-25 40z"/><glyph glyph-name="Ecircumflex" unicode="Ê" horiz-adv-x="515" d="M215 580q-17 0-17-17V422h203q42 0 42-60t-42-60H198V137q0-17 17-17h223q42 0 42-60T438 0H163q-45 0-71.5 18.5T65 88v524q0 51 26.5 69.5T163 700h275q42 0 42-60t-42-60H215zm24 310h76q23 0 40-17l57-75q17-17 13-31.5T396 746q-32-8-55 13l-65 60-62-60q-24-21-56-13-24 6-28 20.5t11 31.5l61 75q15 17 37 17z"/><glyph glyph-name="Edieresis" unicode="Ë" horiz-adv-x="515" d="M215 580q-17 0-17-17V422h203q42 0 42-60t-42-60H198V137q0-17 17-17h223q42 0 42-60T438 0H163q-45 0-71.5 18.5T65 88v524q0 51 26.5 69.5T163 700h275q42 0 42-60t-42-60H215zm144 310q63 0 63-60 0-30-14-44.5T359 771q-59 0-59 59 0 60 59 60zm-167 0q59 0 59-60 0-30-13-44.5T192 771q-34 0-47 14.5T132 830q0 60 60 60z"/><glyph glyph-name="Igrave" unicode="Ì" horiz-adv-x="263" d="M198 658V38q0-47-67-47-66 0-66 47v620q0 46 66 46 67 0 67-46zm-31 128q15-35-24-40-36-7-58 17l-60 67q-17 19-13.5 36T40 888q10 2 40 2 40 0 55-30z"/><glyph glyph-name="Iacute" unicode="Í" horiz-adv-x="263" d="M198 658V38q0-47-67-47-66 0-66 47v620q0 46 66 46 67 0 67-46zM94 786l35 74q14 30 53 30 27 0 39-2 27-5 30-22t-15-36l-59-67q-23-24-58-17-39 5-25 40z"/><glyph glyph-name="Icircumflex" unicode="Î" horiz-adv-x="263" d="M198 658V38q0-47-67-47-66 0-66 47v620q0 46 66 46 67 0 67-46zM93 890h76q23 0 40-17l57-75q17-17 13-31.5T250 746q-32-8-55 13l-65 60-62-60q-24-21-56-13-24 6-28 20.5T-5 798l61 75q15 17 37 17z"/><glyph glyph-name="Idieresis" unicode="Ï" horiz-adv-x="263" d="M198 658V38q0-47-67-47-66 0-66 47v620q0 46 66 46 67 0 67-46zm16 222q63 0 63-60 0-30-14-44.5T214 761q-59 0-59 59 0 60 59 60zm-167 0q59 0 59-60 0-30-13-44.5T47 761q-34 0-47 14.5T-13 820q0 60 60 60z"/><glyph glyph-name="Eth" unicode="Ð" horiz-adv-x="639" d="M88 411v200q0 89 99 89h139q95 0 159.5-49.5t91.5-126T604 351q0-99-27-175.5t-91.5-126T326 0H187Q88 0 88 86v214H52q-19 0-28 16t-9 38q0 23 9 40t28 17h36zm154 169q-21 0-21-17V411h118q39 0 39-57 0-54-39-54H221V138q0-18 21-18h84q40 0 69 21.5t44 57.5 21.5 73.5T467 351q0 40-7 77.5t-21.5 73-44 57T326 580h-84z"/><glyph glyph-name="Ntilde" unicode="Ñ" horiz-adv-x="644" d="M205 671l197-334q29-47 47-90v411q0 46 65 46t65-46V38q0-47-70-47-51 0-71 33L241 358q-27 46-46 94V38q0-47-65-47T65 38v620q0 46 69 46 53 0 71-33zm9 94q-20-26-44-14-12 2-18 14.5t-4 25.5q7 36 38 61 29 24 68 24 37 0 75-24t57-24q28 0 42 30 8 24 41 18 32-9 23-36-10-45-32-67t-64-22q-31 0-72.5 22.5T256 796q-27 0-42-31z"/><glyph glyph-name="Ograve" unicode="Ò" horiz-adv-x="638" d="M35 350q0 361 284 361t284-361T319-11 35 350zm432 0q0 244-148 244-47 0-78-21.5T195.5 512 176 435.5t-5-85.5q0-243 148-243t148 243zM365 786q15-35-24-40-36-7-58 17l-60 67q-17 19-13.5 36t28.5 22q10 2 40 2 40 0 55-30z"/><glyph glyph-name="Oacute" unicode="Ó" horiz-adv-x="638" d="M35 350q0 361 284 361t284-361T319-11 35 350zm432 0q0 244-148 244-47 0-78-21.5T195.5 512 176 435.5t-5-85.5q0-243 148-243t148 243zM282 786l35 74q14 30 53 30 27 0 39-2 27-5 30-22t-15-36l-59-67q-23-24-58-17-39 5-25 40z"/><glyph glyph-name="Ocircumflex" unicode="Ô" horiz-adv-x="638" d="M35 350q0 361 284 361t284-361T319-11 35 350zm432 0q0 244-148 244-47 0-78-21.5T195.5 512 176 435.5t-5-85.5q0-243 148-243t148 243zM280 890h76q23 0 40-17l57-75q17-17 13-31.5T437 746q-32-8-55 13l-65 60-62-60q-24-21-56-13-24 6-28 20.5t11 31.5l61 75q15 17 37 17z"/><glyph glyph-name="Otilde" unicode="Õ" horiz-adv-x="638" d="M35 350q0 361 284 361t284-361T319-11 35 350zm432 0q0 244-148 244-47 0-78-21.5T195.5 512 176 435.5t-5-85.5q0-243 148-243t148 243zM211 775q-20-26-44-14-12 2-18 14.5t-4 25.5q7 36 38 61 29 24 68 24 37 0 75-24t57-24q28 0 42 30 8 24 41 18 32-9 23-36-10-45-32-67t-64-22q-31 0-72.5 22.5T253 806q-27 0-42-31z"/><glyph glyph-name="Odieresis" unicode="Ö" horiz-adv-x="638" d="M35 350q0 361 284 361t284-361T319-11 35 350zm432 0q0 244-148 244-47 0-78-21.5T195.5 512 176 435.5t-5-85.5q0-243 148-243t148 243zm-66 540q63 0 63-60 0-30-14-44.5T401 771q-59 0-59 59 0 60 59 60zm-167 0q59 0 59-60 0-30-13-44.5T234 771q-34 0-47 14.5T174 830q0 60 60 60z"/><glyph glyph-name="multiply" unicode="×" horiz-adv-x="470" d="M235 419l114 112q22 25 57-8 33-33 9-60L302 353l113-114q21-21-9-59-36-32-57-6L235 286 123 174q-23-26-61 6-30 38-6 59l112 114L56 463q-27 27 6 60 37 33 61 8z"/><glyph glyph-name="Oslash" unicode="Ø" horiz-adv-x="671" d="M480 434L228 160q40-54 106-54 151 0 151 244 0 36-5 84zM193 270l251 270q-36 55-110 55-46 0-76.5-22t-44-61.5T195 435t-5-85q0-55 3-80zM52 350q0 362 282 362 127 0 201-72l64 67q22 26 61-7 34-32 12-61l-82-88q31-83 31-201 0-171-67-265T334-9Q209-9 137 61L75-5Q50-30 13 2-28 33 2 64l81 86q-31 78-31 200z"/><glyph glyph-name="Ugrave" unicode="Ù" horiz-adv-x="635" d="M197 658V240q0-59 31.5-95t88.5-36 89 36 32 95v418q0 46 66 46t66-46V252q0-134-68-198.5T317-11q-116 0-184 64.5T65 252v406q0 46 66 46t66-46zm176 118q15-35-24-40-36-7-58 17l-60 67q-17 19-13.5 36t28.5 22q10 2 40 2 40 0 55-30z"/><glyph glyph-name="Uacute" unicode="Ú" horiz-adv-x="635" d="M197 658V240q0-59 31.5-95t88.5-36 89 36 32 95v418q0 46 66 46t66-46V252q0-134-68-198.5T317-11q-116 0-184 64.5T65 252v406q0 46 66 46t66-46zm83 118l35 74q14 30 53 30 27 0 39-2 27-5 30-22t-15-36l-59-67q-23-24-58-17-39 5-25 40z"/><glyph glyph-name="Ucircumflex" unicode="Û" horiz-adv-x="635" d="M197 658V240q0-59 31.5-95t88.5-36 89 36 32 95v418q0 46 66 46t66-46V252q0-134-68-198.5T317-11q-116 0-184 64.5T65 252v406q0 46 66 46t66-46zm82 232h76q23 0 40-17l57-75q17-17 13-31.5T436 746q-32-8-55 13l-65 60-62-60q-24-21-56-13-24 6-28 20.5t11 31.5l61 75q15 17 37 17z"/><glyph glyph-name="Udieresis" unicode="Ü" horiz-adv-x="635" d="M197 658V240q0-59 31.5-95t88.5-36 89 36 32 95v418q0 46 66 46t66-46V252q0-134-68-198.5T317-11q-116 0-184 64.5T65 252v406q0 46 66 46t66-46zm202 222q63 0 63-60 0-30-14-44.5T399 761q-59 0-59 59 0 60 59 60zm-167 0q59 0 59-60 0-30-13-44.5T232 761q-34 0-47 14.5T172 820q0 60 60 60z"/><glyph glyph-name="Yacute" unicode="Ý" horiz-adv-x="523" d="M196 333L12 651q-14 25-.5 39T50 704q43 0 62.5-9.5T147 658l116-213 115 213q15 27 37 36.5t64 9.5q24 0 34-11.5t-3-39.5L329 333V38q0-47-66-47-67 0-67 47v295zm28 443l35 74q14 30 53 30 27 0 39-2 27-5 30-22t-15-36l-59-67q-23-24-58-17-39 5-25 40z"/><glyph glyph-name="Thorn" unicode="Þ" horiz-adv-x="601" d="M360 468H172V248h188q44 0 72 31t28 79q0 47-28.5 78.5T360 468zM50 32v632q0 44 61 44t61-44v-99h192q96 0 156.5-58.5T581 358q0-92-60.5-151.5T364 147H172V32q0-44-61-44T50 32z"/><glyph glyph-name="germandbls" unicode="ß" horiz-adv-x="580" d="M65-9v515q0 97 55 153t161 56q82-1 139-48.5T475 543q-1-52-24-82t-69-50q-7-3-9.5-8t1.5-10 14-7q86-25 129-69.5T559 189q-2-87-55.5-142T360-8q-39-1-78 14t-57 41q-26 36 2 70 30 30 65 9 36-20 58-19 36 4 54.5 29t18.5 63q0 11-2.5 21t-5 16.5-10.5 14-11 11-14.5 9.5l-14.5 7.5-17.5 7.5-16.5 7q-12 6-44 18-71 36-66 100 1 33 41 47 3 1 15 5.5t16 6.5l13.5 6.5 13.5 8 10.5 9.5 9 12.5 5 15.5 2.5 20q-1 61-74 61-48 0-65-28t-17-75V-5q0-32-15-49t-50-16Q65-68 65-9z"/><glyph glyph-name="agrave" unicode="à" d="M357 41q-61-52-150-52-71 0-121.5 45T35 153q0 200 301 182 1 89-79 89-20 0-34.5-1t-32-6.5T166 408l-33-14q-40-17-64 11-15 17-13 42t23 38q78 47 180 47 93 0 152-46.5T470 341V110q0-19 4-67 2-25-11-35T424-3q-26 0-41 10t-26 34zm-21 196q-21 4-50 1t-55-8.5-44-25.5-17-51q1-26 20-41t50-15q51 0 77 41t19 99zm-25 369q15-35-24-40-36-7-58 17l-60 67q-17 19-13.5 36t28.5 22q10 2 40 2 40 0 55-30z"/><glyph glyph-name="aacute" unicode="á" d="M357 41q-61-52-150-52-71 0-121.5 45T35 153q0 200 301 182 1 89-79 89-20 0-34.5-1t-32-6.5T166 408l-33-14q-40-17-64 11-15 17-13 42t23 38q78 47 180 47 93 0 152-46.5T470 341V110q0-19 4-67 2-25-11-35T424-3q-26 0-41 10t-26 34zm-21 196q-21 4-50 1t-55-8.5-44-25.5-17-51q1-26 20-41t50-15q51 0 77 41t19 99zM208 606l35 74q14 30 53 30 27 0 39-2 27-5 30-22t-15-36l-59-67q-23-24-58-17-39 5-25 40z"/><glyph glyph-name="acircumflex" unicode="â" d="M357 41q-61-52-150-52-71 0-121.5 45T35 153q0 200 301 182 1 89-79 89-20 0-34.5-1t-32-6.5T166 408l-33-14q-40-17-64 11-15 17-13 42t23 38q78 47 180 47 93 0 152-46.5T470 341V110q0-19 4-67 2-25-11-35T424-3q-26 0-41 10t-26 34zm-21 196q-21 4-50 1t-55-8.5-44-25.5-17-51q1-26 20-41t50-15q51 0 77 41t19 99zM216 710h76q23 0 40-17l57-75q17-17 13-31.5T373 566q-32-8-55 13l-65 60-62-60q-24-21-56-13-24 6-28 20.5t11 31.5l61 75q15 17 37 17z"/><glyph glyph-name="atilde" unicode="ã" d="M357 41q-61-52-150-52-71 0-121.5 45T35 153q0 200 301 182 1 89-79 89-20 0-34.5-1t-32-6.5T166 408l-33-14q-40-17-64 11-15 17-13 42t23 38q78 47 180 47 93 0 152-46.5T470 341V110q0-19 4-67 2-25-11-35T424-3q-26 0-41 10t-26 34zm-21 196q-21 4-50 1t-55-8.5-44-25.5-17-51q1-26 20-41t50-15q51 0 77 41t19 99zM147 595q-20-26-44-14-12 2-18 14.5T81 621q7 36 38 61 29 24 68 24 37 0 75-24t57-24q28 0 42 30 8 24 41 18 32-9 23-36-10-45-32-67t-64-22q-31 0-72.5 22.5T189 626q-27 0-42-31z"/><glyph glyph-name="adieresis" unicode="ä" d="M357 41q-61-52-150-52-71 0-121.5 45T35 153q0 200 301 182 1 89-79 89-20 0-34.5-1t-32-6.5T166 408l-33-14q-40-17-64 11-15 17-13 42t23 38q78 47 180 47 93 0 152-46.5T470 341V110q0-19 4-67 2-25-11-35T424-3q-26 0-41 10t-26 34zm-21 196q-21 4-50 1t-55-8.5-44-25.5-17-51q1-26 20-41t50-15q51 0 77 41t19 99zm11 473q63 0 63-60 0-30-14-44.5T347 591q-59 0-59 59 0 60 59 60zm-167 0q59 0 59-60 0-30-13-44.5T180 591q-34 0-47 14.5T120 650q0 60 60 60z"/><glyph glyph-name="aring" unicode="å" d="M357 41q-61-52-150-52-71 0-121.5 45T35 153q0 200 301 182 1 89-79 89-20 0-34.5-1t-32-6.5T166 408l-33-14q-40-17-64 11-15 17-13 42t23 38q78 47 180 47 93 0 152-46.5T470 341V110q0-19 4-67 2-25-11-35T424-3q-26 0-41 10t-26 34zm-21 196q-21 4-50 1t-55-8.5-44-25.5-17-51q1-26 20-41t50-15q51 0 77 41t19 99zm-71 461q-16 0-27.5-11.5T226 659t11-26.5 28-10.5 28 10.5 11 26.5-11.5 27.5T265 698zm0 52q39 0 64.5-26t25.5-65q0-37-25.5-63T265 570q-37 0-63.5 26T175 659q0 38 26 64.5t64 26.5z"/><glyph glyph-name="ae" unicode="æ" horiz-adv-x="823" d="M337 237q-21 4-51 2.5t-57.5-6-46-24T166 158q1-26 22-43.5T240 97q50 0 76.5 41t20.5 99zm238 193q-42 0-66.5-28.5T480 324h163q6 0 12.5 6t6.5 15q-4 40-27 62.5T575 430zM215-10Q142-6 88.5 37T35 151q0 202 302 184 1 88-81 92-10 0-19.5-1t-16-1.5-16-3-13-3.5-14.5-5-13.5-5-15.5-7-16-7q-40-13-62 11-17 21-15.5 44T80 484q76 48 177 48 111 0 164-63 19 29 60 45.5t90 16.5q100 0 158.5-58.5T788 318q-3-48-25-67t-67-19H472q7-62 29-99.5T579 95q29 0 47 13t32 39q18 29 72 26 30-3 39-20t3-35q-19-63-71.5-97.5T574-12q-116 0-166 76-35-39-88-59T215-10z"/><glyph glyph-name="ccedilla" unicode="ç" horiz-adv-x="509" d="M35 260q0 268 228 268 85 0 140.5-40.5T470 381q3-31-11.5-44T409 324q-51 0-59 36-19 67-87 67-32 0-53-15t-30.5-42-12.5-52-3-58 3.5-58.5 13-52.5 30.5-41.5T263 93q59 0 89 64 15 35 64 38 30 2 46.5-11.5T472 144q-15-65-60-105T295-8l-6-15q43 0 71.5-18.5T389-101q3-53-49-82-30-13-69-13-50 0-83 13-29 15-22 47 4 15 17 21.5t30-.5q20-14 56-14 17 1 27.5 8.5T307-103q0 26-38 26-14 1-35-1-17-2-26.5 10T205-39l13 32Q35 19 35 260z"/><glyph glyph-name="egrave" unicode="è" horiz-adv-x="518" d="M273 428q-43 0-68.5-28T174 324h164q19 0 18 22-3 39-25.5 60.5T273 428zm195-310q-19-63-71.5-97.5T271-14Q154-13 95 65T35 262q0 55 13 102t39.5 85 72.5 60 107 22q101 0 158.5-58.5T482 317q-1-49-22-67.5T391 231H170q2-59 25-97.5T274 96q30 0 48 13t32 40q15 29 73 23 30-3 38.5-19.5T468 118zM305 616q15-35-24-40-36-7-58 17l-60 67q-17 19-13.5 36t28.5 22q10 2 40 2 40 0 55-30z"/><glyph glyph-name="eacute" unicode="é" horiz-adv-x="518" d="M273 428q-43 0-68.5-28T174 324h164q19 0 18 22-3 39-25.5 60.5T273 428zm195-310q-19-63-71.5-97.5T271-14Q154-13 95 65T35 262q0 55 13 102t39.5 85 72.5 60 107 22q101 0 158.5-58.5T482 317q-1-49-22-67.5T391 231H170q2-59 25-97.5T274 96q30 0 48 13t32 40q15 29 73 23 30-3 38.5-19.5T468 118zM222 616l35 74q14 30 53 30 27 0 39-2 27-5 30-22t-15-36l-59-67q-23-24-58-17-39 5-25 40z"/><glyph glyph-name="ecircumflex" unicode="ê" horiz-adv-x="518" d="M273 428q-43 0-68.5-28T174 324h164q19 0 18 22-3 39-25.5 60.5T273 428zm195-310q-19-63-71.5-97.5T271-14Q154-13 95 65T35 262q0 55 13 102t39.5 85 72.5 60 107 22q101 0 158.5-58.5T482 317q-1-49-22-67.5T391 231H170q2-59 25-97.5T274 96q30 0 48 13t32 40q15 29 73 23 30-3 38.5-19.5T468 118zM220 710h76q23 0 40-17l57-75q17-17 13-31.5T377 566q-32-8-55 13l-65 60-62-60q-24-21-56-13-24 6-28 20.5t11 31.5l61 75q15 17 37 17z"/><glyph glyph-name="edieresis" unicode="ë" horiz-adv-x="518" d="M273 428q-43 0-68.5-28T174 324h164q19 0 18 22-3 39-25.5 60.5T273 428zm195-310q-19-63-71.5-97.5T271-14Q154-13 95 65T35 262q0 55 13 102t39.5 85 72.5 60 107 22q101 0 158.5-58.5T482 317q-1-49-22-67.5T391 231H170q2-59 25-97.5T274 96q30 0 48 13t32 40q15 29 73 23 30-3 38.5-19.5T468 118zM341 710q63 0 63-60 0-30-14-44.5T341 591q-59 0-59 59 0 60 59 60zm-167 0q59 0 59-60 0-30-13-44.5T174 591q-34 0-47 14.5T114 650q0 60 60 60z"/><glyph glyph-name="igrave" unicode="ì" horiz-adv-x="276" d="M205 480V39q0-48-67-48T71 39v441q0 48 67 48t67-48zm-31 136q15-35-24-40-36-7-58 17l-60 67q-17 19-13.5 36T47 718q10 2 40 2 40 0 55-30z"/><glyph glyph-name="iacute" unicode="í" horiz-adv-x="276" d="M205 480V39q0-48-67-48T71 39v441q0 48 67 48t67-48zM101 616l35 74q14 30 53 30 27 0 39-2 27-5 30-22t-15-36l-59-67q-23-24-58-17-39 5-25 40z"/><glyph glyph-name="icircumflex" unicode="î" horiz-adv-x="276" d="M205 480V39q0-48-67-48T71 39v441q0 48 67 48t67-48zM100 720h76q23 0 40-17l57-75q17-17 13-31.5T257 576q-32-8-55 13l-65 60-62-60q-24-21-56-13-24 6-28 20.5T2 628l61 75q15 17 37 17z"/><glyph glyph-name="idieresis" unicode="ï" horiz-adv-x="276" d="M205 480V39q0-48-67-48T71 39v441q0 48 67 48t67-48zm15 220q63 0 63-60 0-30-14-44.5T220 581q-59 0-59 59 0 60 59 60zm-167 0q59 0 59-60 0-30-13-44.5T53 581q-34 0-47 14.5T-7 640q0 60 60 60z"/><glyph glyph-name="eth" unicode="ð" horiz-adv-x="546" d="M368 241q0 65-23 111.5T268 399q-26 0-45.5-10T193 364.5 177 327t-7.5-41.5T168 241q0-156 100-156t100 156zm-333 0q0 118 54.5 185.5T257 494q49 0 99-26-20 49-70 104l-97-51q-26-8-41 23-14 36 7 46l65 35q-29 17-49 24-16 10-14.5 26.5T175 707q32 23 69 11 55-18 88-40l66 29q24 12 40-20 18-35-8-47l-34-15q113-133 104-351-3-51-9.5-88.5t-22-76-40-63-65-40T268-9Q154-9 94.5 59T35 241z"/><glyph glyph-name="ntilde" unicode="ñ" horiz-adv-x="563" d="M189 480l2-12q54 67 148 67 169 0 169-179V39q0-48-67-48t-67 48v288q0 36-14.5 62T309 415q-58 0-84-39.5T199 276V39q0-48-67-48T65 39v442q0 47 59 47 30 0 45.5-10t19.5-38zm-6 115q-20-26-44-14-12 2-18 14.5t-4 25.5q7 36 38 61 29 24 68 24 37 0 75-24t57-24q28 0 42 30 8 24 41 18 32-9 23-36-10-45-32-67t-64-22q-31 0-72.5 22.5T225 626q-27 0-42-31z"/><glyph glyph-name="ograve" unicode="ò" horiz-adv-x="528" d="M35 259q0 269 229 269t229-269T264-10 35 259zm329 0q0 33-3.5 58T348 369t-30.5 41.5T264 425t-53-14.5-30.5-41.5-12.5-52-3-58q0-166 99-166 100 0 100 166zm-64 347q15-35-24-40-36-7-58 17l-60 67q-17 19-13.5 36t28.5 22q10 2 40 2 40 0 55-30z"/><glyph glyph-name="oacute" unicode="ó" horiz-adv-x="528" d="M35 259q0 269 229 269t229-269T264-10 35 259zm329 0q0 33-3.5 58T348 369t-30.5 41.5T264 425t-53-14.5-30.5-41.5-12.5-52-3-58q0-166 99-166 100 0 100 166zM227 606l35 74q14 30 53 30 27 0 39-2 27-5 30-22t-15-36l-59-67q-23-24-58-17-39 5-25 40z"/><glyph glyph-name="ocircumflex" unicode="ô" horiz-adv-x="528" d="M35 259q0 269 229 269t229-269T264-10 35 259zm329 0q0 33-3.5 58T348 369t-30.5 41.5T264 425t-53-14.5-30.5-41.5-12.5-52-3-58q0-166 99-166 100 0 100 166zM225 710h76q23 0 40-17l57-75q17-17 13-31.5T382 566q-32-8-55 13l-65 60-62-60q-24-21-56-13-24 6-28 20.5t11 31.5l61 75q15 17 37 17z"/><glyph glyph-name="otilde" unicode="õ" horiz-adv-x="528" d="M35 259q0 269 229 269t229-269T264-10 35 259zm329 0q0 33-3.5 58T348 369t-30.5 41.5T264 425t-53-14.5-30.5-41.5-12.5-52-3-58q0-166 99-166 100 0 100 166zM146 595q-20-26-44-14-12 2-18 14.5T80 621q7 36 38 61 29 24 68 24 38 0 75-24t57-24q28 0 42 30 8 24 41 18 32-9 23-36-10-45-32-67t-64-22q-31 0-72.5 22.5T188 626q-27 0-42-31z"/><glyph glyph-name="odieresis" unicode="ö" horiz-adv-x="528" d="M35 259q0 269 229 269t229-269T264-10 35 259zm329 0q0 33-3.5 58T348 369t-30.5 41.5T264 425t-53-14.5-30.5-41.5-12.5-52-3-58q0-166 99-166 100 0 100 166zm-18 451q63 0 63-60 0-30-14-44.5T346 591q-59 0-59 59 0 60 59 60zm-167 0q59 0 59-60 0-30-13-44.5T179 591q-34 0-47 14.5T119 650q0 60 60 60z"/><glyph glyph-name="divide" unicode="÷" horiz-adv-x="514" d="M258 239q59 0 59-59 0-62-59-62t-59 62q0 59 59 59zm0 301q59 0 59-58 0-61-59-61t-59 61q0 29 13 43.5t46 14.5zM75 381h364q40 0 40-50 0-51-40-51H75q-40 0-40 51 0 50 40 50z"/><glyph glyph-name="oslash" unicode="ø" horiz-adv-x="545" d="M175 216l156 190q-26 21-58 21-101 0-101-167 0-27 3-44zm196 88L216 112q24-19 57-19 99 0 99 167 0 26-1 44zM45 260q0 268 228 268 81 0 129-33l23 26q14 15 31.5 13.5T489 520q37-29 11-62l-30-37q31-62 31-161Q501-9 273-9q-80 0-131 31L120-2q-15-15-31.5-14T57-2Q41 9 36.5 25.5T45 57l30 40q-30 60-30 163z"/><glyph glyph-name="ugrave" unicode="ù" horiz-adv-x="557" d="M369 39l-3 11q-56-65-142-65Q55-15 55 164v316q0 48 67 48t67-48V193q0-88 59-88 58 0 84 38t26 97v240q0 48 67 48t67-48V41q0-50-61-50-51 0-62 48zm-45 567q15-35-24-40-36-7-58 17l-60 67q-17 19-13.5 36t28.5 22q10 2 40 2 40 0 55-30z"/><glyph glyph-name="uacute" unicode="ú" horiz-adv-x="557" d="M369 39l-3 11q-56-65-142-65Q55-15 55 164v316q0 48 67 48t67-48V193q0-88 59-88 58 0 84 38t26 97v240q0 48 67 48t67-48V41q0-50-61-50-51 0-62 48zM241 606l35 74q14 30 53 30 27 0 39-2 27-5 30-22t-15-36l-59-67q-23-24-58-17-39 5-25 40z"/><glyph glyph-name="ucircumflex" unicode="û" horiz-adv-x="557" d="M369 39l-3 11q-56-65-142-65Q55-15 55 164v316q0 48 67 48t67-48V193q0-88 59-88 58 0 84 38t26 97v240q0 48 67 48t67-48V41q0-50-61-50-51 0-62 48zM240 710h76q23 0 40-17l57-75q17-17 13-31.5T397 566q-32-8-55 13l-65 60-62-60q-24-21-56-13-24 6-28 20.5t11 31.5l61 75q15 17 37 17z"/><glyph glyph-name="udieresis" unicode="ü" horiz-adv-x="557" d="M369 39l-3 11q-56-65-142-65Q55-15 55 164v316q0 48 67 48t67-48V193q0-88 59-88 58 0 84 38t26 97v240q0 48 67 48t67-48V41q0-50-61-50-51 0-62 48zm-9 671q63 0 63-60 0-30-14-44.5T360 591q-59 0-59 59 0 60 59 60zm-167 0q59 0 59-60 0-30-13-44.5T193 591q-34 0-47 14.5T133 650q0 60 60 60z"/><glyph glyph-name="yacute" unicode="ý" horiz-adv-x="480" d="M458 454L275-66Q230-195 83-171q-41 7-41 62 0 30 13 45t42 11q23-3 42.5 9T167-10l15 44L22 451q-24 66 43 72 68 8 81-28l99-275 94 275q12 36 80 28 33-3 42-18.5t-3-50.5zM203 606l35 74q14 30 53 30 27 0 39-2 27-5 30-22t-15-36l-59-67q-23-24-58-17-39 5-25 40z"/><glyph glyph-name="thorn" unicode="þ" horiz-adv-x="567" d="M199 285v-44q0-56 24.5-102.5T297 92q92 0 92 168 0 169-92 169-47 0-72.5-44.5T199 285zM65-138v794q0 51 67 51t67-51V494q43 37 110 37 223 0 223-271 0-125-55.5-197.5T309-10q-74 0-110 35v-163q0-50-67-50t-67 50z"/><glyph glyph-name="ydieresis" unicode="ÿ" horiz-adv-x="480" d="M458 454L275-66Q230-195 83-171q-41 7-41 62 0 30 13 45t42 11q23-3 42.5 9T167-10l15 44L22 451q-24 66 43 72 68 8 81-28l99-275 94 275q12 36 80 28 33-3 42-18.5t-3-50.5zM322 700q63 0 63-60 0-30-14-44.5T322 581q-59 0-59 59 0 60 59 60zm-167 0q59 0 59-60 0-30-13-44.5T155 581q-34 0-47 14.5T95 640q0 60 60 60z"/><glyph glyph-name="OE" unicode="Œ" horiz-adv-x="926" d="M468 350q0 38-3 68.5t-12 65-24.5 57.5-43.5 38.5-66 15.5q-37 0-65-15.5T210.5 541 186 483.5t-12-65-3-68.5q0-244 148-244 149 0 149 244zm159 230q-18 0-18-17V422h204q41 0 41-61 0-58-41-58H609V138q0-16 18-16h224q40 0 40-62 0-60-40-60H575q-38 0-62 11.5T481 56q-73-66-172-66-143 0-208.5 95.5T35 350q0 361 279 361 100 0 167-65 14 54 94 54h276q40 0 40-59 0-61-40-61H627z"/><glyph glyph-name="oe" unicode="œ" horiz-adv-x="848" d="M603 428q-42 0-67.5-28T505 324h165q7 0 12 6t4 17q-2 39-24.5 60T603 428zM365 261q0 164-101 164-32 0-53-14.5t-30.5-41-12.5-51-3-57.5 3.5-59 13-53 30.5-41.5T264 93q101 0 101 168zm434-143q-19-64-71.5-98T601-13q-113 0-175 81-21-35-63-56.5T264-10Q35-10 35 261q0 267 229 267 111 0 161-73 62 77 173 77 102 0 159-58.5T812 317q0-49-21-68t-68-19H501q2-135 103-135 31 0 48.5 13t32.5 41q14 28 73 22 30-3 38.5-18.5T799 118z"/><glyph glyph-name="Scaron" unicode="Š" horiz-adv-x="548" d="M143 196q15-44 47-69t76-25q50 0 82.5 24.5T381 201q0 20-9.5 36T352 262t-31.5 18-31.5 12-33 9q-48 13-82.5 26.5t-71 37.5-56 61.5T27 514q0 91 67.5 144.5T253 712q204 0 249-167 6-23-8.5-39.5T451 486q-59-7-74 31-18 42-44.5 61T257 597q-40 0-68.5-20T160 515q0-18 9.5-33t19.5-23 30-16.5 29-11 30-7.5q40-10 68-19.5t62-27.5 55-39 35.5-55 14.5-76q0-103-67-162T268-14q-91 0-161.5 47T17 170q-10 51 43 63 27 6 50.5-2.5T143 196zm72 574l-72 72q-11 12-8.5 23t16.5 18q10 8 27.5 7t31.5-11l62-46 67 46q12 10 30 11t30-7q28-16 8-41l-73-72q-23-21-62-21-36 0-57 21z"/><glyph glyph-name="scaron" unicode="š" horiz-adv-x="475" d="M83 182q53 8 71-31 29-57 95-57 27 0 49.5 14.5T322 149q0 27-24.5 39.5T211 214q-37 8-64 18t-54 27.5-41 46T38 372q0 74 59 117t137 43q150 0 189-112 9-26-1-39.5T383 363q-57-7-80 25-27 40-70 40-70 0-70-45 0-41 99-58 43-8 73-18.5t58-28.5 42.5-47 14.5-69q0-83-58.5-129T250-13Q91-13 42 108q-26 62 41 74zm105 408l-72 72q-11 12-8.5 23t16.5 18q10 8 27.5 7t31.5-11l62-46 67 46q12 10 30 11t30-7q28-16 8-41l-73-72q-23-21-62-21-36 0-57 21z"/><glyph glyph-name="Ydieresis" unicode="Ÿ" horiz-adv-x="523" d="M196 333L12 651q-14 25-.5 39T50 704q43 0 62.5-9.5T147 658l116-213 115 213q15 27 37 36.5t64 9.5q24 0 34-11.5t-3-39.5L329 333V38q0-47-66-47-67 0-67 47v295zm147 537q63 0 63-60 0-30-14-44.5T343 751q-59 0-59 59 0 60 59 60zm-167 0q59 0 59-60 0-30-13-44.5T176 751q-34 0-47 14.5T116 810q0 60 60 60z"/><glyph glyph-name="Zcaron" unicode="Ž" horiz-adv-x="502" d="M424 0H62Q15 0 15 59q0 34 15 59l238 395q25 42 43 67H59q-42 0-42 60t42 60h361q47 0 47-59 0-32-15-59L217 185q-23-38-45-64h252q42 0 42-61 0-60-42-60zM192 770l-72 72q-11 12-8.5 23t16.5 18q10 8 27.5 7t31.5-11l62-46 67 46q12 10 30 11t30-7q28-16 8-41l-73-72q-23-21-62-21-36 0-57 21z"/><glyph glyph-name="zcaron" unicode="ž" horiz-adv-x="415" d="M73 518h274q48 0 48-54 0-33-18-59L217 165q-25-37-49-57h184q48 0 48-54T352 0H65Q15 0 15 54q0 35 14 57l164 245q24 36 43 54H73q-48 0-48 54t48 54zm75 72l-72 72q-11 12-8.5 23T84 703q10 8 27.5 7t31.5-11l62-46 67 46q12 10 30 11t30-7q28-16 8-41l-73-72q-23-21-62-21-36 0-57 21z"/><glyph glyph-name="circumflex" unicode="ˆ" horiz-adv-x="367" d="M145 700h76q23 0 40-17l57-75q17-17 13-31.5T302 556q-32-8-55 13l-65 60-62-60q-24-21-56-13-24 6-28 20.5T47 608l61 75q15 17 37 17z"/><glyph glyph-name="caron" unicode="ˇ" horiz-adv-x="341" d="M111 580l-72 72q-11 12-8.5 23T47 693q10 8 27.5 7t31.5-11l62-46 67 46q12 10 30 11t30-7q28-16 8-41l-73-72q-23-21-62-21-36 0-57 21z"/><glyph glyph-name="ring" unicode="˚" horiz-adv-x="240" d="M120 648q-16 0-27.5-11.5T81 609t11-26.5 28-10.5 28 10.5 11 26.5-11.5 27.5T120 648zm0 52q39 0 64.5-26t25.5-65q0-37-25.5-63T120 520q-37 0-63.5 26T30 609q0 38 26 64.5t64 26.5z"/><glyph glyph-name="tilde" unicode="˜" horiz-adv-x="407" d="M97 585q-20-26-44-14-12 2-18 14.5T31 611q7 36 38 61 29 24 68 24 37 0 75-24t57-24q28 0 42 30 8 24 41 18 32-9 23-36-10-45-32-67t-64-22q-31 0-72.5 22.5T139 616q-27 0-42-31z"/><glyph glyph-name="afii10023" unicode="Ё" horiz-adv-x="515" d="M359 861q32 0 44.5-14t12.5-41q0-28-12-42.5T359 749t-45 14.5-12 42.5 12 41.5 45 13.5zm-165 0q33 0 45-13.5t12-41.5-12-42.5-45-14.5-45 14.5-12 42.5 12 41.5 45 13.5zm21-281q-17 0-17-17V422h203q42 0 42-60t-42-60H198V137q0-17 17-17h223q42 0 42-60T438 0H163q-45 0-71.5 18.5T65 88v524q0 51 26.5 69.5T163 700h275q42 0 42-60t-42-60H215z"/><glyph glyph-name="afii10051" unicode="Ђ" horiz-adv-x="740" d="M430 580H301V426q77 39 156 39 108 2 180.5-61.5T709 219q-2-103-69.5-166.5T478-11q-83 0-129 33-34 24-15 65 8 18 24.5 24t42.5-5q28-15 67-11 58 2 89 37t31 93q0 60-34.5 95.5T460 358q-86 3-159-38V37q0-45-65-45-67 0-67 45v543H42q-42 0-42 61 0 59 42 59h388q41 0 41-59 0-61-41-61z"/><glyph glyph-name="afii10052" unicode="Ѓ" horiz-adv-x="454" d="M209 786l32 78q15 35 56 33 20 0 48-4 25-6 28.5-22.5T360 835l-63-70q-26-27-64-17-37 7-24 38zm5-206q-16 0-16-17V37q0-45-66-45-67 0-67 45v575q0 53 25.5 70.5T163 700h234q42 0 42-59 0-61-42-61H214z"/><glyph glyph-name="afii10053" unicode="Є" horiz-adv-x="610" d="M35 350q0 84 13 147t44.5 113 88 75.5T319 711q121 0 187.5-61T584 486q3-23-17-36.5T516 438q-34 1-51 10t-23 34q-13 59-39.5 85.5T319 594q-124 0-139-170h183q42 0 42-60t-42-60H178q2-41 9-72.5t21.5-61 42.5-46 68-17.5q99-3 120 104 6 27 24.5 38.5T517 262q37 0 54-14t13-45q-11-98-77.5-156T319-11q-82 0-139 26T92 91 48 203.5 35 350z"/><glyph glyph-name="afii10054" unicode="Ѕ" horiz-adv-x="548" d="M143 196q15-44 47-69t76-25q50 0 82.5 24.5T381 201q0 20-9.5 36T352 262t-31.5 18-31.5 12-33 9q-48 13-82.5 26.5t-71 37.5-56 61.5T27 514q0 91 67.5 144.5T253 712q204 0 249-167 6-23-8.5-39.5T451 486q-59-7-74 31-18 42-44.5 61T257 597q-40 0-68.5-20T160 515q0-18 9.5-33t19.5-23 30-16.5 29-11 30-7.5q40-10 68-19.5t62-27.5 55-39 35.5-55 14.5-76q0-103-67-162T268-14q-91 0-161.5 47T17 170q-10 51 43 63 27 6 50.5-2.5T143 196z"/><glyph glyph-name="afii10055" unicode="І" horiz-adv-x="263" d="M198 658V38q0-47-67-47-66 0-66 47v620q0 46 66 46 67 0 67-46z"/><glyph glyph-name="afii10056" unicode="Ї" horiz-adv-x="288" d="M210 657V38q0-47-66-47T78 38v619q0 47 66 47t66-47zM62 861q32 0 44.5-14t12.5-41q0-28-12-42.5T62 749t-45 14.5T5 806t12 41.5T62 861zm164 0q33 0 45-13.5t12-41.5-12-42.5-45-14.5-45 14.5-12 42.5 12 41.5 45 13.5z"/><glyph glyph-name="afii10057" unicode="Ј" horiz-adv-x="424" d="M359 658V180q0-52-19.5-91.5t-52-61.5-74-32-85.5-7T42 5Q-4 21 8 83q5 23 21.5 35.5T67 124q42-15 82-13 77 1 77 92v455q0 46 66 46 67 0 67-46z"/><glyph glyph-name="afii10058" unicode="Љ" horiz-adv-x="921" d="M666 315H538V138q0-16 18-16h110q42 0 65 25.5t23 69.5q0 42-24 70t-64 28zM265 580q-16 0-16-17-2-27-7-112t-11.5-167T214 141q-12-77-44-112.5T75-6Q12-6 11 49q-4 53 35 57 41 7 48 70 9 76 16.5 241.5T121 608q6 51 34.5 71.5T233 700h208q45 0 71-18t26-70V436h142q93 0 152-61.5T891 217q0-95-59.5-156T680 0H504q-45 0-71.5 18.5T406 89v474q0 17-17 17H265z"/><glyph glyph-name="afii10059" unicode="Њ" horiz-adv-x="941" d="M685 312H556V138q0-16 17-16h112q41 0 63.5 26t22.5 69q0 42-23.5 68.5T685 312zM556 431h142q92 0 152.5-59.5T911 217 850 61 698 0H521q-45 0-71.5 18.5T423 89v223H198V37q0-45-66-45-67 0-67 45v621q0 47 67 47 66 0 66-47V431h225v227q0 47 67 47 66 0 66-47V431z"/><glyph glyph-name="afii10060" unicode="Ћ" horiz-adv-x="746" d="M574 235q0 124-113 128-78 3-159-43V37q0-45-65-45-67 0-67 45v543H42q-42 0-42 61 0 59 42 59h387q43 0 43-59 0-61-43-61H302V426q73 39 156 39 116 3 182-59t66-174V37q0-45-66-45t-66 45v198z"/><glyph glyph-name="afii10061" unicode="Ќ" horiz-adv-x="567" d="M237 786l34 78q15 35 55 33 24 0 46-4 27-6 30.5-22.5T387 835l-62-70q-23-28-62-17-39 7-26 38zm-40-128V434q76 0 115 68 11 20 38 77t38 74q21 31 36.5 41.5T477 705q40 0 54-14.5t-4-42.5q-11-17-39-74.5T440 481l-23.5-37-25.5-30-36-25q65-19 104-109 15-37 41.5-119.5T539 54q16-34-.5-47T478-6q-31 0-46 8.5T407 32q-18 38-38.5 111T339 241q-32 92-142 79V37q0-45-66-45T65 37v621q0 47 66 47t66-47z"/><glyph glyph-name="afii10062" unicode="Ў" horiz-adv-x="518" d="M504 657L292 107Q249-7 168-7q-34 0-52 13T97 56q-1 45 38 51 15 2 22.5 9t16.5 30l39 99L16 649q-13 25 2.5 39T63 704q40 1 57-9t30-38l122-256 99 256q11 28 26.5 37.5T452 704q28-1 44.5-11.5T504 657zm-232 75q-54 0-93.5 23T126 807q-17 39 10 56 30 19 51-2 36-37 85-37 50 0 86 37 10 10 24 11t27-8q27-18 10-57-14-29-53.5-52T272 732z"/><glyph glyph-name="afii10145" unicode="Џ" horiz-adv-x="613" d="M449 0h-88v-144q0-38-54-38-57 0-57 38V0h-87q-45 0-71.5 18.5T65 89v575q0 46 66 46t66-46V138q0-16 16-16h186q16 0 16 16v526q0 46 67 46 66 0 66-46V89q0-52-26.5-70.5T449 0z"/><glyph glyph-name="afii10017" unicode="А" horiz-adv-x="604" d="M373 277l-48 146q-16 49-23 96-7-47-23-96l-48-146h142zM192 160L153 40q-10-29-28-38T78-7Q58-7 44-4T20.5 10 18 40l207 620q17 50 77 50t77-50L586 40q9-27-9.5-37T526-7q-29 0-47 9t-28 38l-39 120H192z"/><glyph glyph-name="afii10018" unicode="Б" horiz-adv-x="563" d="M215 580q-17 0-17-17V422h135q92 0 148.5-57.5T538 211q0-95-57-153T333 0H163q-45 0-71.5 18.5T65 88v524q0 51 26.5 69.5T163 700h288q42 0 42-60t-42-60H215zm104-278H198V137q0-17 17-17h104q81 0 81 91 0 43-20.5 67T319 302z"/><glyph glyph-name="afii10019" unicode="В" horiz-adv-x="600" d="M198 302V137q0-17 17-17h130q81 0 81 91t-93 91H198zm270 71q97-47 97-162 0-95-57.5-153T359 0H163q-45 0-71.5 18.5T65 88v524q0 51 26.5 69.5T163 700h170q94 0 150-49t56-142q0-44-19.5-80T468 373zm-149 49q40 0 60.5 21t20.5 58q0 79-81 79H215q-17 0-17-17V422h121z"/><glyph glyph-name="afii10020" unicode="Г" horiz-adv-x="443" d="M214 580q-17 0-17-17V38q0-47-66-47T65 38v574q0 51 26.5 69.5T163 700h233q42 0 42-60t-42-60H214z"/><glyph glyph-name="afii10021" unicode="Д" horiz-adv-x="644" d="M206 119h214v443q0 17-16 17H269q-16 0-18-17-4-126-13-282-9-120-32-161zM488 0H142q-18 0-18-18v-87q0-46-62-46T0-105V32q0 57 48 82 26 14 38 63t20 137q3 44 13 298 3 52 29.5 70t70.5 18h234q46 0 72-18t26-70V119q36-1 57-19.5T629 32v-137q0-46-63-46-62 0-62 46v87q0 18-16 18z"/><glyph glyph-name="afii10022" unicode="Е" horiz-adv-x="515" d="M215 580q-17 0-17-17V422h203q42 0 42-60t-42-60H198V137q0-17 17-17h223q42 0 42-60T438 0H163q-45 0-71.5 18.5T65 88v524q0 51 26.5 69.5T163 700h275q42 0 42-60t-42-60H215z"/><glyph glyph-name="afii10024" unicode="Ж" horiz-adv-x="781" d="M456 657V437q26 4 44.5 18t27.5 28 25 45q10 20 29 65.5t27 59.5q20 30 35.5 40.5T697 704q40 0 55.5-16.5T750 641q-16-26-46.5-88.5T657 463l-21.5-33-21.5-23.5-32-20.5q67-30 101-112 16-39 33.5-114T746 50q11-31-3-43.5T692-7t-52 9.5T613 44q-7 17-24.5 95T558 249q-27 67-102 71V38q0-47-65-47t-65 47v282q-75-3-102-71-13-32-31-110t-25-95q-12-31-27-41.5T89-7Q53-6 38.5 6.5T35 50q13 36 31 110.5T100 274q34 83 100 112-40 18-75 77-18 28-48.5 90.5T30 641q-18 30-2.5 46.5T84 704q37 0 53-10.5t35-40.5q8-14 27-59.5t29-65.5q16-31 25-45t27.5-28 45.5-18v220q0 47 65 47t65-47z"/><glyph glyph-name="afii10025" unicode="З" horiz-adv-x="553" d="M151 203q25-97 119-97 47 0 79 27t32 68q0 61-35.5 82T242 304q-42 0-42 61 0 56 45 60 118 4 118 93 0 38-25.5 58.5T268 597q-51 0-75.5-19.5T162 516q-4-21-26-30t-49-5q-27 3-42.5 19T32 537q11 85 71 131t164 46q95 0 163.5-48T500 522q0-101-93-149 54-21 83-68t27-105q-3-102-69-157T266-12q-93 0-163.5 51.5T26 181q-1 22 13 36t38 18q63 12 74-32z"/><glyph glyph-name="afii10026" unicode="И" horiz-adv-x="628" d="M434 38v414q-14-34-38-79L196 26Q176-9 133-9 65-9 65 38v619q0 47 64 47 66 0 66-47V237q9 25 38 78l201 350q22 39 68 39 61 0 61-47V38q0-47-63-47-66 0-66 47z"/><glyph glyph-name="afii10027" unicode="Й" horiz-adv-x="628" d="M317 738q-54 0-93.5 23T171 813q-17 39 10 56 30 19 51-2 36-37 85-37 50 0 86 37 10 10 24 11t27-8q27-18 10-57-14-29-53.5-52T317 738zM434 38v414q-15-39-39-79L196 26Q176-9 132-9 65-9 65 38v619q0 47 64 47 65 0 65-47V237q14 35 39 78l201 350q22 39 67 39 62 0 62-47V38q0-47-63-47-66 0-66 47z"/><glyph glyph-name="afii10028" unicode="К" horiz-adv-x="566" d="M198 657V435q76 0 114 66 12 21 38.5 78t37.5 74q21 31 36.5 41t52.5 10q41 0 55-14.5t-4-43.5q-12-18-41-76t-48-90q-43-72-83-91 62-19 103-110 17-39 42-120.5T538 53q30-60-59-60-31 0-46.5 9T407 33q-19 39-40 114.5T339 242q-31 87-141 79V38q0-47-67-47-66 0-66 47v619q0 47 66 47 67 0 67-47z"/><glyph glyph-name="afii10029" unicode="Л" horiz-adv-x="603" d="M265 580q-15 0-18-17-2-24-6.5-112t-11-169T214 140q-12-76-44.5-112T75-7Q14-7 11 48q-2 52 34 59 41 6 47 69 10 77 18 242.5T121 607q12 93 112 93h207q46 0 72-18t26-69V37q0-46-66-46t-66 46v526q0 17-17 17H265z"/><glyph glyph-name="afii10030" unicode="М" horiz-adv-x="703" d="M576 705q62 0 62-48V38q0-47-64-47-65 0-65 47v405q-6-18-37-86l-77-152q-12-23-43-23-32 0-44 23l-76 152q-27 54-38 86V38q0-47-65-47-64 0-64 47v619q0 48 63 48 38 0 56-27 8-11 50-91l80-154 38-74q151 294 167 319 18 27 57 27z"/><glyph glyph-name="afii10031" unicode="Н" horiz-adv-x="620" d="M555 657V38q0-47-67-47-66 0-66 47v260H197V38q0-47-66-47T65 38v619q0 47 66 47t66-47V418h225v239q0 47 66 47 67 0 67-47z"/><glyph glyph-name="afii10032" unicode="О" horiz-adv-x="638" d="M35 350q0 361 284 361t284-361T319-11 35 350zm432 0q0 244-148 244-47 0-78-21.5T195.5 512 176 435.5t-5-85.5q0-243 148-243t148 243z"/><glyph glyph-name="afii10033" unicode="П" horiz-adv-x="613" d="M450 700q45 0 71.5-18.5T548 612V38q0-47-66-47-67 0-67 47v525q0 17-16 17H214q-17 0-17-17V38q0-47-66-47T65 38v574q0 51 26.5 69.5T163 700h287z"/><glyph glyph-name="afii10034" unicode="Р" horiz-adv-x="576" d="M198 264V38q0-47-67-47-66 0-66 47v574q0 51 26.5 69.5T163 700h177q91 0 151-61t60-156q0-96-59.5-157.5T340 264H198zm128 121q40 0 63 28t23 70q0 43-22.5 70T326 580H215q-17 0-17-17V385h128z"/><glyph glyph-name="afii10035" unicode="С" horiz-adv-x="596" d="M35 350q0 361 285 361 115 0 176-61t71-162q2-22-17-35t-47-13q-61-2-71 43-12 58-37.5 84.5T314 594q-45 0-75-21.5T195.5 512 177 435.5t-5-85.5q0-47 5-84.5t19-76.5 44-60.5 74-21.5q54 0 79.5 29t40.5 83q12 42 71 43 37 0 53.5-14t10.5-45q-17-92-79.5-153T314-11Q35-11 35 350z"/><glyph glyph-name="afii10036" unicode="Т" horiz-adv-x="500" d="M57 700h386q42 0 42-60t-42-60H316V38q0-47-66-47-26 0-46 11t-20 36v542H57q-42 0-42 60t42 60z"/><glyph glyph-name="afii10037" unicode="У" horiz-adv-x="518" d="M504 657L292 107Q249-7 168-7q-34 0-52 13T97 56q-1 45 38 51 15 2 22.5 9t16.5 30l39 99L16 649q-13 25 2.5 39T63 704q40 1 57-9t30-38l122-256 99 256q11 28 26.5 37.5T452 704q28-1 44.5-11.5T504 657z"/><glyph glyph-name="afii10038" unicode="Ф" horiz-adv-x="743" d="M437 680v-42q130-11 203-93t73-196q0-112-75-193.5T437 64V24q0-46-66-46-65 0-65 46v40q-126 10-201 90T30 345q0 115 73 198.5T306 638v42q0 45 65 45 66 0 66-45zm0-521q67 7 105.5 60T581 349q0 75-39 128t-105 61V159zM306 538q-65-8-104.5-62.5T162 345t39-127.5T306 159v379z"/><glyph glyph-name="afii10039" unicode="Х" horiz-adv-x="542" d="M271 479l101 178q15 28 34.5 37.5T467 704q27 0 43.5-11.5T513 656L343 356 521 42q14-25-3-37.5T474-9q-74-2-99 44L271 229 167 35Q142-11 68-9 41-8 24 4.5T21 42l178 314L30 656q-14 25 2 36.5T75 704q41 0 60.5-9.5T170 657z"/><glyph glyph-name="afii10040" unicode="Ц" horiz-adv-x="654" d="M559 657V120q39-1 59.5-19.5T639 32v-136q0-46-63-46-61 0-61 46v87q0 17-16 17H163q-45 0-71.5 18.5T65 88v575q0 46 66 46 67 0 67-46V137q0-17 16-17h213v537q0 47 66 47t66-47z"/><glyph glyph-name="afii10041" unicode="Ч" horiz-adv-x="575" d="M510 657V38q0-47-67-47-66 0-66 47v208q-65-21-128-21-92 0-148 48.5T45 411v246q0 47 66 47t66-47V426q0-80 90-80 59 0 110 24v287q0 47 66 47 67 0 67-47z"/><glyph glyph-name="afii10042" unicode="Ш" horiz-adv-x="909" d="M214 120h174v537q0 47 66 47t66-47V120h174q17 0 17 17v526q0 46 66 46 67 0 67-46V88q0-51-26.5-69.5T746 0H163q-45 0-71.5 18.5T65 88v575q0 46 66 46t66-46V137q0-17 17-17z"/><glyph glyph-name="afii10043" unicode="Щ" horiz-adv-x="939" d="M844 657V120q39-1 59.5-20T924 32v-136q0-46-63-46-62 0-62 46v87q0 17-17 17H163q-45 0-71.5 18.5T65 88v575q0 46 66 46 67 0 67-46V137q0-17 16-17h174v537q0 47 66 47 67 0 67-47V120h190v537q0 47 67 47 66 0 66-47z"/><glyph glyph-name="afii10044" unicode="Ъ" horiz-adv-x="651" d="M268 436h141q92 0 152-61.5T621 217q0-95-60.5-156T409 0H233q-45 0-71.5 18.5T135 88v471q0 16-17 16H46q-46 0-46 62 0 63 46 63h133q53 0 71-22.5t18-66.5V436zm127-120H268V137q0-17 16-17h111q41 0 64 27t23 70q0 42-23 70.5T395 316z"/><glyph glyph-name="afii10045" unicode="Ы" horiz-adv-x="807" d="M742 657V38q0-47-66-47t-66 47v619q0 47 66 47t66-47zM198 436h126q92 0 152-61.5T536 217q0-95-60.5-156T324 0H163q-45 0-71.5 18.5T65 88v575q0 46 67 46 66 0 66-46V436zm112-120H198V137q0-17 17-17h95q41 0 64 27t23 70q0 42-23.5 70.5T310 316z"/><glyph glyph-name="afii10046" unicode="Ь" horiz-adv-x="581" d="M197 436h142q92 0 152-61.5T551 217q0-95-60.5-156T339 0H163q-45 0-71.5 18.5T65 88v575q0 46 66 46t66-46V436zm128-120H197V137q0-17 17-17h111q41 0 64 27t23 70q0 42-23.5 70.5T325 316z"/><glyph glyph-name="afii10047" unicode="Э" horiz-adv-x="610" d="M575 350q0-84-13-146.5T518 91t-87.5-76T292-11q-122 0-188.5 58T26 203q-4 31 13 45t54 14q35-1 53.5-12.5T171 211q22-107 121-104 132 2 140 197H248q-42 0-42 60t42 60h183q-15 170-139 170-57 0-84-27t-40-85q-5-25-22.5-34T95 438q-31-2-51.5 11.5T26 486q11 103 78 164t188 61q81 0 137.5-25.5t88-75.5T562 497t13-147z"/><glyph glyph-name="afii10048" unicode="Ю" horiz-adv-x="887" d="M287 424q27 287 281 287 284 0 284-361T568-11q-266 0-283 315h-87V38q0-47-66-47-67 0-67 47v619q0 47 67 47 66 0 66-47V424h89zm429-74q0 244-148 244-47 0-78-21.5T444.5 512 425 435.5t-5-85.5q0-243 148-243t148 243z"/><glyph glyph-name="afii10049" unicode="Я" horiz-adv-x="600" d="M235 193q-9-21-24.5-61T182 63.5 155 17Q134-11 82-9 47-8 25.5 9T24 57q11 17 21.5 37.5t16 33l17 40.5L94 204q29 68 77 104-52 20-86.5 67.5T50 490q0 95 59.5 152.5T261 700h176q45 0 71.5-18.5T535 612V38q0-47-66-47t-66 47v244h-60q-70 0-108-89zm40 203h128v167q0 17-17 17H275q-42 0-64.5-24T188 490q0-41 23.5-67.5T275 396z"/><glyph glyph-name="afii10065" unicode="а" d="M357 41q-61-52-150-52-71 0-121.5 45T35 153q0 200 301 182 1 89-79 89-20 0-34.5-1t-32-6.5T166 408l-33-14q-40-17-64 11-15 17-13 42t23 38q78 47 180 47 93 0 152-46.5T470 341V110q0-19 4-67 2-25-11-35T424-3q-26 0-41 10t-26 34zm-21 196q-21 4-50 1t-55-8.5-44-25.5-17-51q1-26 20-41t50-15q51 0 77 41t19 99z"/><glyph glyph-name="afii10066" unicode="б" horiz-adv-x="561" d="M193 488q16 16 52 25t62 9q219 0 219-263 0-124-56-196.5T293-10q-123 0-183 74T46 266Q35 582 256 690q16 8 141 62 23 12 45 5.5t33-30.5q26-58-23-87-17-10-39-18.5t-51.5-18L317 589q-98-37-124-101zm198-229q0 155-106 155-104 0-104-155 0-28 5-54.5t16-53 33.5-42T289 94q102 1 102 165z"/><glyph glyph-name="afii10067" unicode="в" horiz-adv-x="532" d="M65 98v323q0 97 89 97h157q79 0 126-34t47-107q0-26-15-55.5T429 282q68-29 68-118 0-81-51.5-122.5T306 0H154Q65 0 65 98zm285 272q0 45-60 45h-73q-18 0-18-20v-69h103q20 0 34 11t14 33zM199 223V123q0-19 12-19h93q23 0 41 16t18 44q0 27-18 43t-41 16H199z"/><glyph glyph-name="afii10068" unicode="г" horiz-adv-x="403" d="M65 421q0 97 89 97h187q47 0 47-54t-47-54H217q-18 0-18-20V38q0-48-67-48T65 38v383z"/><glyph glyph-name="afii10069" unicode="д" horiz-adv-x="547" d="M5 30q0 46 32 70 32 21 42 75 7 36 10.5 85t5 98 2.5 63q5 97 92 97h194q91 0 91-98V104q58-8 58-74V-71q0-49-57-49-59 0-59 49v51q0 20-17 20H145q-18 0-18-20v-51q0-49-59-49-63 0-63 49V30zm338 78v281q0 21-18 21h-86q-19 0-19-21 0-3-4.5-80.5t-11.5-130-17-70.5h156z"/><glyph glyph-name="afii10070" unicode="е" horiz-adv-x="518" d="M273 428q-43 0-68.5-28T174 324h164q19 0 18 22-3 39-25.5 60.5T273 428zm195-310q-19-63-71.5-97.5T271-14Q154-13 95 65T35 262q0 55 13 102t39.5 85 72.5 60 107 22q101 0 158.5-58.5T482 317q-1-49-22-67.5T391 231H170q2-59 25-97.5T274 96q30 0 48 13t32 40q15 29 73 23 30-3 38.5-19.5T468 118z"/><glyph glyph-name="afii10072" unicode="ж" horiz-adv-x="709" d="M418 480V336q8 2 15.5 5t13 5.5 12 8.5 10 8.5 9 10.5 8 10.5T493 397t6 11.5 6.5 13T512 434q26 51 38 66 25 27 77 26 33-1 45.5-14t-3.5-42q-11-18-46-85-42-78-78-94 45-13 69-52.5T655.5 133 683 45q22-49-43-55-72-7-90 55l-12.5 44-11.5 40-11 31.5-14.5 27.5-19 18.5-27 12.5-36.5 3V38q0-48-64-48-63 0-63 48v184q-24 0-42-6t-28.5-13.5-20.5-28-14-33.5-13-46l-14-50q-18-62-90-55Q4-4 26 45q10 22 27.5 87.5t41.5 105 69 53.5q-39 17-78 94-35 67-46 85-16 29-3.5 42T82 526q52 1 76-26 14-15 39-66 28-56 45-73 20-19 49-25v144q0 48 63 48 64 0 64-48z"/><glyph glyph-name="afii10073" unicode="з" horiz-adv-x="452" d="M214 322q31 0 48.5 15t17.5 42q0 48-64 48-30 0-47-11.5T141 377q-6-13-24.5-19T78 354q-56 7-45 49 17 66 68.5 97.5T223 532q75 0 128.5-38T405 384q0-66-53-108 65-38 65-121 0-79-59-124T219-14q-68 0-121.5 30.5T28 110q-16 64 50 68 49 4 66-39 20-49 70-49 34 0 56 17.5t22 50.5q0 32-24 47t-58 15q-28 0-39 12t-11 37q0 34 14 43.5t40 9.5z"/><glyph glyph-name="afii10074" unicode="и" horiz-adv-x="569" d="M232 274l151 233q14 21 57 21 64 0 64-48V38q0-48-67-48t-67 48v263q-13-25-32-57L186 12q-15-22-57-22-64 0-64 48v442q0 48 67 48t67-48V218q16 32 33 56z"/><glyph glyph-name="afii10075" unicode="й" horiz-adv-x="569" d="M286 563q-49 0-91 23.5T137 642q-12 26 14 47 12 10 28 11.5t27-8.5q33-37 80-37 48 0 81 37 11 10 27 8.5t28-11.5q26-23 13-47-15-32-57-55.5T286 563zm154-35q64 0 64-48V38q0-24-19.5-36T437-10q-67 0-67 48v263q-15-30-33-57L186 12q-15-22-57-22-64 0-64 48v442q0 48 67 48t67-48V218q14 29 32 56l152 233q14 21 57 21z"/><glyph glyph-name="afii10076" unicode="к" horiz-adv-x="510" d="M199 480V335q21 4 38 13.5t30 25.5 22 30.5 22 38 22 37.5q36 52 97 48 34-2 49-17t-2-44q-12-17-39-64t-50.5-76-50.5-40q48-13 73.5-51.5t44-104.5T483 44q24-49-43-55-74-7-93 55-3 9-9.5 31l-9 30-9 26-10 24.5-10.5 19-13.5 17.5-15.5 12.5-19.5 10L227 219l-28 2V38q0-48-67-48T65 38v442q0 48 67 48t67-48z"/><glyph glyph-name="afii10077" unicode="л" horiz-adv-x="542" d="M477 421V38q0-48-67-48t-67 48v352q0 20-18 20h-75q-19 0-19-20-2-24-6.5-103.5T215 165q-12-86-43.5-131T68-11Q39-11 26 1.5T11 43q-1 53 36 59 13 2 25.5 14T88 149q6 36 9.5 89t6 110.5T107 421q7 97 94 97h186q90 0 90-97z"/><glyph glyph-name="afii10078" unicode="м" horiz-adv-x="630" d="M500 528q28 0 46.5-12.5T565 476V38q0-48-66-48t-66 48v240q-12-34-22-51l-47-89q-15-29-49-29t-49 29l-47 88q-8 15-22 52V38q0-48-66-48T65 38v438q0 27 18.5 39.5T130 528q48 0 66-33l119-226 119 226q17 33 66 33z"/><glyph glyph-name="afii10079" unicode="н" horiz-adv-x="560" d="M199 219V38q0-48-67-48T65 38v442q0 48 67 48t67-48V327h162v153q0 48 67 48t67-48V38q0-48-67-48t-67 48v181H199z"/><glyph glyph-name="afii10080" unicode="о" horiz-adv-x="528" d="M35 259q0 269 229 269t229-269T264-10 35 259zm329 0q0 33-3.5 58T348 369t-30.5 41.5T264 425t-53-14.5-30.5-41.5-12.5-52-3-58q0-166 99-166 100 0 100 166z"/><glyph glyph-name="afii10081" unicode="п" horiz-adv-x="557" d="M65 421q0 44 22.5 70.5T155 518h248q89 0 89-97V38q0-48-67-48t-67 48v352q0 20-18 20H217q-17 0-17-20V38q0-48-67-48-26 0-47 11T65 38v383z"/><glyph glyph-name="afii10082" unicode="р" horiz-adv-x="566" d="M191 486q19 20 52 32.5t68 12.5q220 0 220-271 0-126-54.5-199T311-12q-72 0-112 39v-165q0-48-67-48t-67 48v617q0 51 61 51 58 0 65-44zm8-244q0-57 25-103.5T298 92q92 0 92 168 0 167-92 167-47 0-73-43.5T199 287v-45z"/><glyph glyph-name="afii10083" unicode="с" horiz-adv-x="509" d="M35 259q0 269 229 269 85 0 140.5-40.5T468 379q4-30-9.5-43T410 323q-50 1-61 36-10 34-29.5 50T264 425q-100 0-100-166T264 93q60 0 88 65 14 35 64 37 31 1 46.5-12t9.5-39q-16-71-69.5-112.5T264-10Q35-10 35 259z"/><glyph glyph-name="afii10084" unicode="т" horiz-adv-x="416" d="M141 410H63q-48 0-48 54t48 54h290q48 0 48-54t-48-54h-78V38q0-48-67-48t-67 48v372z"/><glyph glyph-name="afii10085" unicode="у" horiz-adv-x="480" d="M458 454L275-66Q230-195 83-171q-41 7-41 62 0 30 13 44.5T97-53q23-3 42.5 9T167-10l15 44L22 451q-24 66 43 72 68 8 81-28l99-275 94 275q12 36 80 28 33-3 42-18.5t-3-50.5z"/><glyph glyph-name="afii10086" unicode="ф" horiz-adv-x="682" d="M406 521q119-8 185-75t66-188Q657 18 406-2v-126q0-47-65-47t-65 47V-2Q25 12 25 258q0 247 251 263v137q0 46 65 46t65-46V521zM276 419q-55-10-83-47t-28-110q0-74 27.5-112.5T276 99v320zM406 99q55 12 83 50.5T517 262q0 73-28 110t-83 47V99z"/><glyph glyph-name="afii10087" unicode="х" horiz-adv-x="461" d="M42 458q-14 22-9 35.5t18 20 34 8.5q17 1 31.5 1t27.5-7 20-21l67-126 66 126q11 20 30 24.5t50 2.5q33-3 45.5-17t-3.5-47L303 270 434 65q19-28 9-47T398-2q-19-1-35-.5T332 6t-24 24l-77 143-78-143q-9-16-23.5-24t-31-8.5T63-2Q28-1 18 18t9 47l132 205z"/><glyph glyph-name="afii10088" unicode="ц" horiz-adv-x="571" d="M481 480V108q80-6 80-84v-95q0-48-57-48-58 0-58 48v51q0 20-18 20H154Q65 0 65 98v382q0 48 67 48t67-48V128q0-20 18-20h130v372q0 48 67 48t67-48z"/><glyph glyph-name="afii10089" unicode="ч" horiz-adv-x="525" d="M460 480V38q0-48-68-48-67 0-67 48v145q-46-18-103-19-81-2-129 40T45 324v156q0 48 67 48t67-48V337q0-72 72-72 38 0 74 24v191q0 48 67 48 68 0 68-48z"/><glyph glyph-name="afii10090" unicode="ш" horiz-adv-x="799" d="M65 98v382q0 48 67 48t67-48V128q0-20 18-20h115v372q0 48 67 48t67-48V108h116q18 0 18 20v352q0 48 67 48t67-48V98q0-98-90-98H154Q65 0 65 98z"/><glyph glyph-name="afii10091" unicode="щ" horiz-adv-x="824" d="M466 108h134v372q0 48 67 48t67-48V108q80-6 80-84v-95q0-48-57-48-58 0-58 48v51q0 20-18 20H154Q65 0 65 98v382q0 48 67 48t67-48V128q0-20 18-20h115v372q0 48 67 48t67-48V108z"/><glyph glyph-name="afii10092" unicode="ъ" horiz-adv-x="541" d="M114 98v292q0 20-18 20H52q-47 0-47 54t47 54h101q95 0 95-84v-92h110q51 0 87.5-17t53.5-45 24.5-54.5T531 171t-8.5-55.5T496 61t-54-44-84-17H203q-89 0-89 98zm134 140V123q0-20 16-20h73q24 0 42 17.5t18 50.5-18 50-42 17h-89z"/><glyph glyph-name="afii10093" unicode="ы" horiz-adv-x="719" d="M65 98v382q0 48 67 48t67-48V342h99q51 0 87.5-17t54-45 24.5-54.5 7-54.5-8.5-55.5T436 61t-54-44-84-17H154Q65 0 65 98zm134 140V123q0-20 16-20h62q24 0 42 17.5t18 50.5-18 50-42 17h-78zm455 242V38q0-48-67-48t-67 48v442q0 48 67 48t67-48z"/><glyph glyph-name="afii10094" unicode="ь" horiz-adv-x="495" d="M65 98v382q0 48 67 48t67-48V342h113q51 0 87.5-17t53.5-45 24.5-54.5T485 171t-8.5-55.5T450 61t-54-44-84-17H154Q65 0 65 98zm134 140V123q0-20 17-20h75q24 0 42 17.5t18 50.5-18 50-42 17h-92z"/><glyph glyph-name="afii10095" unicode="э" horiz-adv-x="509" d="M227 321h115q-3 46-27 74.5T245 424q-60 0-86-54-18-39-68-32-69 8-42 76 41 113 196 113 229 0 229-269 0-268-229-268-82 0-135.5 33T38 114q-8 25 5.5 43T87 178q50 5 68-27 33-58 90-58 48-1 72 33.5t27 86.5H227q-48 0-48 54t48 54z"/><glyph glyph-name="afii10096" unicode="ю" horiz-adv-x="777" d="M288 327q31 201 225 201 229 0 229-269Q742-9 513-9 305-9 286 219h-87V38q0-48-67-48T65 38v442q0 48 67 48t67-48V327h89zm325-68q0 166-100 166T413 259q0-165 100-165t100 165z"/><glyph glyph-name="afii10097" unicode="я" horiz-adv-x="528" d="M463 421V38q0-48-67-48t-67 48v155h-37q-25 0-46-18.5T215 137t-23.5-54T173 39q-14-28-33-38T86-7Q52-4 33.5 14.5T35 57q17 21 33.5 57.5t35.5 66 47 47.5q-46 11-73.5 50T50 357q0 27 8.5 53T85 461.5t54 41 84 15.5h151q89 0 89-97zM329 297v98q0 20-17 20h-69q-59 0-59-58 0-60 59-60h86z"/><glyph glyph-name="afii10071" unicode="ё" horiz-adv-x="518" d="M182 704q62 0 62-63 0-31-13.5-47.5T182 577q-63 0-63 64 0 63 63 63zm168 0q62 0 62-63 0-31-13.5-47.5T350 577t-48.5 16.5T288 641q0 63 62 63zm-77-276q-43 0-68.5-28T174 324h164q19 0 18 22-3 39-25.5 60.5T273 428zm195-310q-19-63-71.5-97.5T271-14Q154-13 95 65T35 262q0 55 13 102t39.5 85 72.5 60 107 22q101 0 158.5-58.5T482 317q-1-49-22-67.5T391 231H170q2-59 25-97.5T274 96q30 0 48 13t32 40q15 29 73 23 30-3 38.5-19.5T468 118z"/><glyph glyph-name="afii10099" unicode="ђ" horiz-adv-x="573" d="M209 656v-10h89q28 0 28-39 0-41-28-41h-89v-89q59 58 141 58 168 0 168-178V-60q0-69-40.5-102.5T382-198q-96 0-94 62 2 14 12.5 23.5T326-103q36-1 46.5 9.5T383-52v380q0 86-58 86-44 0-71.5-25t-36-56.5T209 261V37q0-47-67-47-68 0-68 47v529H28q-28 0-28 41 0 39 28 39h46v10q0 49 68 49 67 0 67-49z"/><glyph glyph-name="afii10100" unicode="ѓ" horiz-adv-x="403" d="M190 610l33 76q15 30 55 30 27 0 40-3 25-4 28-20t-16-35l-56-68q-24-26-59-19-39 8-25 39zM65 420q0 98 88 98h187q25 0 36.5-15.5T388 465q0-55-48-55H216q-17 0-17-20V37q0-47-67-47T65 37v383z"/><glyph glyph-name="afii10101" unicode="є" horiz-adv-x="509" d="M282 321q48 0 48-54t-48-54H165q3-52 27-86.5T264 93q57 0 91 58 18 32 67 27 30-3 43.5-21t5.5-43q-18-58-71.5-91T264-10Q35-10 35 258q0 270 229 270 154 0 197-114 25-68-43-76-50-7-68 32-25 54-86 54-46 0-70-28.5T167 321h115z"/><glyph glyph-name="afii10102" unicode="ѕ" horiz-adv-x="475" d="M83 182q53 8 71-31 29-57 95-57 27 0 49.5 14.5T322 149q0 27-24.5 39.5T211 214q-37 8-64 18t-54 27.5-41 46T38 372q0 74 59 117t137 43q150 0 189-112 9-26-1-39.5T383 363q-57-7-80 25-27 40-70 40-70 0-70-45 0-41 99-58 43-8 73-18.5t58-28.5 42.5-47 14.5-69q0-83-58.5-129T250-13Q91-13 42 108q-26 62 41 74z"/><glyph glyph-name="afii10103" unicode="і" horiz-adv-x="276" d="M205 480V39q0-48-67-48T71 39v441q0 48 67 48t67-48zm-67 227q40 0 56.5-17t16.5-49q0-33-15.5-51.5T138 571q-43 0-58 18t-15 52q0 33 16 49.5t57 16.5z"/><glyph glyph-name="afii10104" unicode="ї" horiz-adv-x="287" d="M211 480V38q0-48-67-48T77 38v442q0 48 67 48t67-48zm13 224q58 0 58-59 0-61-58-61-33 0-46 15.5T165 645q0 59 59 59zm-160 0q59 0 59-59 0-61-59-61T5 645q0 59 59 59z"/><glyph glyph-name="afii10105" unicode="ј" horiz-adv-x="280" d="M209 480V-16q0-85-53.5-126T13-174q-48 5-48 69 0 30 15 43.5T27-48q48 0 48 59v469q0 48 67 48t67-48zm-67 227q41 0 57-16.5t16-49.5q0-34-15-52t-58-18q-42 0-57.5 18.5T69 641t16 49.5 57 16.5z"/><glyph glyph-name="afii10106" unicode="љ" horiz-adv-x="773" d="M478 238V123q0-20 16-20h74q25 0 42.5 17t17.5 50-17.5 50.5T568 238h-90zm0 182v-78h113q51 0 87-17t53-45 24.5-55 7.5-55q0-27-8.5-54.5t-27-54.5-54-44T591 0H432q-89 0-89 98v292q0 20-18 20h-76q-18 0-18-20-3-25-7.5-104.5T214 165q-11-85-43.5-130.5T67-11Q38-11 25 1.5T11 43q-3 27 7.5 42.5T46 103q14 2 26.5 13.5T88 149q8 47 13 155t6 116q7 98 94 98h186q91 0 91-98z"/><glyph glyph-name="afii10107" unicode="њ" horiz-adv-x="792" d="M497 235V123q0-20 17-20h75q23 0 41 17t18 50q0 32-18 48.5T589 235h-92zM362 98v137H199V37q0-47-67-47T65 37v444q0 47 67 47t67-47V339h163v142q0 47 67 47 68 0 68-47V339h113q51 0 87-16.5t53.5-44T775 225t7-55q0-27-8-54.5T747.5 61t-54-44T610 0H452q-90 0-90 98z"/><glyph glyph-name="afii10108" unicode="ћ" horiz-adv-x="583" d="M218 656v-10h89q31 0 31-39 0-41-31-41h-89v-89q62 58 141 58 169 0 169-178V37q0-47-69-47-67 0-67 47v291q0 86-58 86-43 0-70.5-25T227 332t-9-71V37q0-47-67-47-68 0-68 47v529H39q-29 0-29 41 0 39 29 39h44v10q0 49 68 49 67 0 67-49z"/><glyph glyph-name="afii10109" unicode="ќ" horiz-adv-x="511" d="M219 608l34 76q16 32 55 31 28 0 39-4 26-4 29.5-19.5T362 656l-59-68q-24-26-56-19-42 7-28 39zm-21-127V336q27 5 48.5 21t31.5 30 29 47 28 47q34 52 96 47 33-2 49-17t-1-42q-13-18-40-65t-50.5-76.5T338 287q37-10 62.5-39.5t36-60 24-76T485 43q22-47-44-54-77-5-94 54-2 8-9 32t-9 30l-8.5 25.5-10 24.5-11 19-13.5 18-15.5 12-20 10-23.5 4.5-29 1.5V37q0-47-66-47-67 0-67 47v444q0 47 67 47 66 0 66-47z"/><glyph glyph-name="afii10110" unicode="ў" horiz-adv-x="480" d="M458 454L275-66Q230-195 83-171q-41 7-41 62 0 30 13 44.5T97-53q23-3 42.5 9T167-10l15 44L22 451q-24 66 43 72 68 8 81-28l99-275 94 275q12 36 80 28 33-3 42-18.5t-3-50.5zM253 562q-49 0-91 23.5T104 641q-12 26 14 47 12 10 28 11.5t27-8.5q33-37 80-37 48 0 81 37 11 10 27 8.5t28-11.5q26-23 13-47-15-32-57-55.5T253 562z"/><glyph glyph-name="afii10193" unicode="џ" horiz-adv-x="559" d="M494 98q0-98-90-98h-63v-95q0-43-62-43-60 0-60 43V0h-64Q65 0 65 98v383q0 47 68 47 67 0 67-47V128q0-20 17-20h125q18 0 18 20v353q0 47 67 47t67-47V98z"/><glyph glyph-name="afii10050" unicode="Ґ" horiz-adv-x="479" d="M215 580q-17 0-17-17V37q0-45-67-45-66 0-66 45v575q0 52 26.5 70t72.5 18h175q15 0 21 7t6 24v128q0 38 51 38 52 0 52-38V676q0-96-102-96H215z"/><glyph glyph-name="afii10098" unicode="ґ" horiz-adv-x="433" d="M65 420q0 98 89 98h150q10 0 14.5 4t4.5 18v135q0 32 48 32 18 0 32.5-7.5T418 675V504q0-54-23-74t-68-20H216q-18 0-18-20V37q0-47-66-47-67 0-67 47v383z"/><glyph glyph-name="endash" unicode="–" horiz-adv-x="568" d="M494 271H74q-39 0-39 55t39 55h420q39 0 39-55t-39-55z"/><glyph glyph-name="emdash" unicode="—" horiz-adv-x="858" d="M787 207H70q-35 0-35 51 0 52 35 52h717q36 0 36-52 0-51-36-51z"/><glyph glyph-name="quoteleft" unicode="‘" horiz-adv-x="245" d="M187 705q49-3 42-51l-27-182q-10-62-82-57-44 3-58.5 30.5T63 505l65 162q16 39 59 38z"/><glyph glyph-name="quoteright" unicode="’" horiz-adv-x="245" d="M98 415q-49 3-42 51l27 182q10 62 82 57 44-3 58.5-30.5T222 615l-65-162q-16-39-59-38z"/><glyph glyph-name="quotesinglbase" unicode="‚" horiz-adv-x="275" d="M99-149q-50 3-43 51L84 84q9 62 82 57 44-3 58-30.5T222 51l-65-162q-17-41-58-38z"/><glyph glyph-name="quotedblleft" unicode="“" horiz-adv-x="389" d="M147 749q49-3 42-51l-27-182q-10-61-82-56-44 2-58.5 29.5T23 550l65 161q17 41 59 38zm184 0q49-3 42-51l-27-182q-10-61-82-56-44 2-58.5 29.5T207 550l65 161q17 41 59 38z"/><glyph glyph-name="quotedblright" unicode="”" horiz-adv-x="389" d="M263 415q-50 3-43 51l28 182q9 62 82 57 44-3 58-30.5t-2-59.5l-65-162q-16-39-58-38zm-184 0q-50 3-43 51l28 182q9 62 82 57 44-3 58-30.5t-2-59.5l-65-162q-15-39-58-38z"/><glyph glyph-name="quotedblbase" unicode="„" horiz-adv-x="459" d="M283-149q-50 3-43 51l28 182q9 62 82 57 44-3 58-30.5T406 51l-65-162q-16-39-58-38zm-184 0q-50 3-43 51L84 84q9 62 82 57 44-3 58-30.5T222 51l-65-162q-15-39-58-38z"/><glyph glyph-name="dagger" unicode="†" horiz-adv-x="511" d="M446 420H308v-554q0-38-52-38-53 0-53 38v554H64q-34 0-34 50 0 48 34 48h139v149q0 38 53 38 52 0 52-38V518h138q35 0 35-48 0-50-35-50z"/><glyph glyph-name="daggerdbl" unicode="‡" horiz-adv-x="511" d="M447 420H310V100h137q34 0 34-51 0-49-34-49H310v-134q0-38-53-38-52 0-52 38V0H66Q30 0 30 49q0 51 36 51h139v320H66q-36 0-36 50 0 48 36 48h139v149q0 38 52 38 53 0 53-38V518h137q34 0 34-48 0-50-34-50z"/><glyph glyph-name="bullet" unicode="•" horiz-adv-x="444" d="M222 512q65 0 111-46t46-111-46-111-111-46-111 46-46 111 46 111 111 46z"/><glyph glyph-name="ellipsis" unicode="…" horiz-adv-x="880" d="M738 146q44 0 60.5-19T815 70t-16.5-58T738-8q-45 0-60 19t-15 59q0 38 16 57t59 19zm-297 0q43 0 59-19t16-57-16-58-59-20q-45 0-61 19t-16 59q0 38 17 57t60 19zm-299 0q44 0 59-18.5T216 70t-15.5-58.5T142-8Q97-8 81 11T65 70q0 38 17 57t60 19z"/><glyph glyph-name="perthousand" unicode="‰" horiz-adv-x="956" d="M656 151q0 69 33.5 112T793 306q71 0 104.5-43T931 151q0-70-33.5-113T793-5q-70 0-103.5 43T656 151zm178 0q0 71-41 71-40 0-40-71 0-72 40-72 41 0 41 72zM25 550q0 70 34 113.5T164 707q70 0 103.5-43.5T301 550q0-69-34-112.5T164 394q-71 0-105 43.5T25 550zm180 0q0 71-41 71-44 0-44-71 0-70 44-70 41 0 41 70zm149-399q0 69 34 112t104 43 104-43.5T630 151q0-70-34-113T492-5 388 38t-34 113zm179 0q0 71-41 71t-41-71q0-72 41-72t41 72zm22 499L204 29q-21-43-79-32-45 8-25 52l351 621q20 38 66 35 27 0 38-15.5t0-39.5z"/><glyph glyph-name="guilsinglleft" unicode="‹" horiz-adv-x="284" d="M32 283l123 169q21 29 58 26 25-4 35.5-18t-1.5-37l-95-160q-7-12 0-22l95-160q12-23 1.5-37.5T213 27q-37-4-58 27L32 222q-25 30 0 61z"/><glyph glyph-name="guilsinglright" unicode="›" horiz-adv-x="285" d="M254 283q23-31 0-61L131 54q-22-32-59-27-25 2-35.5 16.5T37 81l95 160q6 13 0 22L37 423q-11 23-.5 37T72 478q38 3 59-26z"/><glyph glyph-name="Euro" unicode="€" horiz-adv-x="691" d="M131 361H77q-37 0-25 51 10 50 47 50h40q39 239 270 239 123 0 187-59.5T665 476q1-23-18.5-34.5T599 430q-33-1-50.5 6.5T528 469q-9 57-36.5 86T409 584q-102 0-131-122h148q35 0 25-50-12-51-47-51H267v-31h115q35 0 25-51-12-50-47-50h-83Q303 97 409 97q93 0 116 104 7 27 24.5 39t50.5 11q37-1 53-14.5t12-43.5q-13-90-78-152T409-21q-126 0-190 64.5T138 229H33q-35 0-25 50 12 51 47 51h76v31z"/><glyph glyph-name="afii61352" unicode="№" horiz-adv-x="906" d="M441 655q0 46 61 46 60 0 60-46V35q0-46-61-46-52 0-71 32L233 355l-14.5 21.5L200 405l-14 29V35q0-46-61-46-60 0-60 46v620q0 46 61 46 52 0 71-32l197-334q3-6 20.5-32.5T441 256v399zm398-387H631q-33 0-33 46 0 47 33 47h208q32 0 32-47 0-46-32-46zM605 555q0 64 31.5 103t98.5 39q66 0 98-39.5T865 555t-32-102.5-98-39.5q-67 0-98.5 39T605 555zm174 0q0 13-1 21t-4.5 20-13.5 18-25 6q-20 0-30.5-12.5t-12-23.5-1.5-29q0-13 1-21t4.5-20 13.5-18 25-6q44 0 44 65z"/><glyph glyph-name="trademark" unicode="™" horiz-adv-x="839" d="M515 352l-58 145V355q0-19-12.5-29.5T412 315q-19 0-32.5 11T366 355v304q0 22 13.5 34t35.5 12q45 0 58-34l97-241 97 241q13 34 59 34 48 0 48-46V355q0-18-13-29t-31-11q-21 0-34 10.5T683 355v144l-59-147q-12-34-54-37-39 0-55 37zM61 700h238q43 0 43-41 0-17-11.5-29T299 618h-77V357q0-40-47-40-20 0-34 11t-14 29v261H61q-18 0-29.5 12T20 659q0 19 10.5 30T61 700z"/><glyph glyph-name="_0127" horiz-adv-x="563" d="M281 436q-39 0-67-27.5T186 342q0-40 28-69t67-29q40 0 68.5 29t28.5 69q0 39-28.5 66.5T281 436zm0 98q53 0 94-25l55 55q30 30 68-8 36-36 6-67l-55-55q24-43 24-92 0-50-24-96l55-53q30-31-6-67-40-36-68-8l-55 55q-48-24-94-24-45 0-93 24l-55-53q-29-31-66 6t-9 67l56 55q-24 40-24 94 0 52 24 92l-56 57q-30 30 9 65 35 37 68 8l53-55q44 25 93 25z"/></font>
</defs>
</svg>
